<?xml version="1.0" encoding="iso-8859-1"?>
<!-- Generator: Adobe Illustrator 19.0.0, SVG Export Plug-In . SVG Version: 6.00 Build 0)  -->
<svg version="1.1" id="Layer_1" xmlns="http://www.w3.org/2000/svg" xmlns:xlink="http://www.w3.org/1999/xlink" x="0px" y="0px"
	 viewBox="0 0 512 512" style="enable-background:new 0 0 512 512;" xml:space="preserve">
<g>
	<path style="fill:#F4516D;" d="M210.06,192.364c-0.461,4.019-1.052,7.99-1.749,11.89c-2.34,13.084-5.933,25.423-10.046,36.533
		c-29.312-42.892-79.296-52.986-79.296-52.986c0-25.719-12.387-41.97-23.13-51.225c-8.226-7.08-15.471-10.07-15.471-10.07
		S154.781,124.521,210.06,192.364z"/>
	<path style="fill:#F4516D;" d="M211.184,168.914v4.066c0,2.305-0.047,4.598-0.142,6.879c-0.177,4.219-0.508,8.392-0.981,12.505
		c-55.279-67.843-129.693-65.857-129.693-65.857c0.993-2.967,1.655-5.933,2.033-8.864c4.905-37.408-36.096-70.608-36.096-70.608
		c51.343,6.04,87.616,24.631,113.17,46.733C188.183,118.611,203.37,147.911,211.184,168.914z"/>
</g>
<path style="fill:#D64766;" d="M222.529,193.628l-13.746,11.205l-0.473-0.579l-5.13-6.3
	c-37.231-45.693-83.763-58.056-107.343-61.378c-8.226-7.08-15.471-10.07-15.471-10.07c0.993-2.967,1.655-5.933,2.033-8.864
	c13.025,0.201,76.967,4.255,128.641,62.217c1.986,2.222,3.948,4.515,5.886,6.902L222.529,193.628z"/>
<path style="fill:#46BA43;" d="M300.73,0c51.402,0,73.433,82.617,73.433,82.617l-0.307,0.756
	c-12.481-5.059-25.932-9.243-40.079-12.387h-0.012v-0.012C333.931,31.77,300.73,0,300.73,0z"/>
<path style="fill:#56D353;" d="M460.937,178.275c0,42.279-45.114,53.803-105.771,35.281c-0.012-0.012-0.012-0.012-0.024-0.012
	c2.163,7.304,4.267,15.247,6.158,23.591c2.376,10.46,4.397,21.582,5.721,32.988l-11.547-7.47l-69.722,45.138l-30.813-19.939v-0.012
	l-38.909-25.187l-45.02,29.146c6.264-7.387,18.06-26.144,27.267-51v-0.012c5.342-14.42,9.798-30.907,11.796-48.424
	c0.721-6.347,1.123-12.824,1.123-19.384v-4.066c-0.035-29.525-0.059-61.827,13.533-82.617c7.257-11.122,18.521-18.946,35.966-21.298
	c-7.056-30.99-31.085-53.979-31.085-53.979c31.014,0,51.331,30.092,62.571,53.943c3.038,0.213,6.063,0.473,9.054,0.78
	c11.169,1.123,22.043,2.896,32.539,5.248h0.012c14.148,3.144,27.598,7.328,40.079,12.387c20.353,8.214,38.141,18.71,52.241,30.73
	C447.936,132.735,460.937,155.038,460.937,178.275z"/>
<g>
	<path style="fill:#46BA43;" d="M296.006,73.681c0,0-61.224,72.594-41.072,214.154l-38.909-25.187l-45.02,29.146
		c6.264-7.387,18.06-26.144,27.267-51v-0.012c5.342-14.42,9.798-30.907,11.796-48.424c0.721-6.347,1.123-12.824,1.123-19.384v-4.066
		c-0.035-29.525-0.059-61.827,13.533-82.617c7.257-11.122,18.521-18.946,35.966-21.298c-7.056-30.99-31.085-53.979-31.085-53.979
		c31.014,0,51.331,30.092,62.571,53.943c3.038,0.213,6.063,0.473,9.054,0.78L296.006,73.681z"/>
	<path style="fill:#46BA43;" d="M361.3,237.135c-60.952-17.705-89.023-62.997-89.023-62.997
		c28.91,18.45,57.276,31.605,82.853,39.394c0,0,0,0,0.012,0.012C357.304,220.848,359.408,228.791,361.3,237.135z"/>
</g>
<g>
	<path style="fill:#4D4D4D;" d="M345.99,122.784c-1.36,0-2.723-0.519-3.761-1.558c-3.014-3.014-7.021-4.673-11.283-4.673
		s-8.269,1.659-11.284,4.675c-2.076,2.077-5.445,2.077-7.521,0c-2.078-2.077-2.078-5.444,0-7.522
		c5.023-5.023,11.701-7.789,18.805-7.789c7.103,0,13.781,2.767,18.803,7.79c2.078,2.077,2.078,5.444,0,7.522
		C348.713,122.265,347.351,122.784,345.99,122.784z"/>
	<path style="fill:#4D4D4D;" d="M418.626,122.784c-1.36,0-2.723-0.519-3.761-1.558c-3.014-3.014-7.021-4.673-11.283-4.673
		s-8.27,1.659-11.284,4.673c-2.075,2.078-5.443,2.077-7.521,0c-2.078-2.077-2.078-5.444,0-7.522c5.022-5.023,11.7-7.79,18.804-7.79
		c7.103,0,13.781,2.767,18.803,7.79c2.078,2.077,2.078,5.444,0,7.522C421.35,122.265,419.988,122.784,418.626,122.784z"/>
</g>
<g>
	<path style="fill:#46BA43;" d="M416.909,183.972c-3.218,0-5.907-2.7-5.91-5.91c-0.004-3.255,2.754-5.988,6.018-5.907
		c3.103,0.077,5.685,2.6,5.794,5.712C422.925,181.14,420.185,183.972,416.909,183.972z"/>
	<path style="fill:#46BA43;" d="M448.821,176.88c-3.285,0-6.009-2.812-5.904-6.089c0.1-3.137,2.738-5.749,5.898-5.739
		c3.079,0.009,5.717,2.481,5.904,5.56C454.922,173.942,452.161,176.88,448.821,176.88z"/>
</g>
<path style="fill:#E6E6E6;" d="M465.696,332.075c0,89.673-65.621,164.04-151.464,177.691c-9.266,1.466-18.781,2.234-28.473,2.234
	c-99.377,0-179.937-80.56-179.937-179.925c0-15.389,1.927-31.841,5.567-48.672l34.926,22.61l24.691-15.992l45.02-29.146
	l22.669,14.68l47.053,30.458l69.722-45.138l11.547,7.47v0.012l58.175,37.656l34.938-22.61
	C463.769,300.234,465.696,316.686,465.696,332.075z"/>
<path style="fill:#CCCCCC;" d="M314.231,509.766c-9.266,1.466-18.781,2.234-28.473,2.234c-99.377,0-179.937-80.56-179.937-179.925
	c0-15.389,1.927-31.841,5.567-48.672l34.926,22.61l24.691-15.992l45.02-29.146l22.669,14.68c0,0-63.836,162.125,75.525,234.199
	C314.221,509.754,314.231,509.754,314.231,509.766z"/>
<g>
</g>
<g>
</g>
<g>
</g>
<g>
</g>
<g>
</g>
<g>
</g>
<g>
</g>
<g>
</g>
<g>
</g>
<g>
</g>
<g>
</g>
<g>
</g>
<g>
</g>
<g>
</g>
<g>
</g>
</svg>
