<?xml version="1.0" encoding="UTF-8" standalone="no"?>
<!DOCTYPE svg PUBLIC "-//W3C//DTD SVG 1.1//EN" "http://www.w3.org/Graphics/SVG/1.1/DTD/svg11.dtd">
<svg xmlns="http://www.w3.org/2000/svg" version="1.1" viewBox="0 0 2744 382" width="2744.0pt" height="382.0pt">
<path d="M 0.00 0.00 L 192.98 0.00 C 172.47 1.70 151.31 6.73 135.15 20.16 C 128.20 25.81 123.47 33.07 120.35 41.42 C 126.65 36.67 133.02 32.60 141.00 31.42 C 149.61 29.53 158.44 31.74 166.35 35.22 C 159.05 37.31 152.13 39.15 145.67 43.31 C 138.07 47.91 131.49 53.86 126.87 61.50 C 133.10 55.34 141.96 53.69 150.11 56.86 C 146.32 61.46 142.83 66.13 140.72 71.78 C 134.99 86.20 135.84 101.98 138.44 116.98 C 141.45 133.90 147.02 150.02 154.02 165.68 C 145.07 166.12 136.35 164.69 127.64 162.80 C 112.38 159.34 98.53 152.39 85.87 143.29 C 71.56 157.58 61.82 176.53 59.72 196.74 C 58.61 209.33 59.68 222.05 63.78 234.06 C 67.69 249.86 72.89 266.20 82.29 279.68 C 87.85 287.37 95.74 295.09 105.51 296.53 C 103.72 281.22 101.99 264.08 105.88 249.02 C 107.53 242.36 110.29 236.12 115.46 231.44 C 119.87 227.28 126.02 225.29 132.01 225.28 C 141.10 225.01 149.31 227.68 157.54 231.22 C 166.45 235.20 174.88 240.14 182.77 245.86 C 183.30 257.79 181.56 269.57 176.39 280.40 C 169.49 295.21 157.60 306.57 143.49 314.53 C 122.80 326.31 99.33 331.52 75.82 333.75 C 87.25 344.92 101.92 350.74 117.52 353.21 C 144.62 356.73 172.93 350.41 196.26 336.26 C 209.06 328.33 220.26 317.99 227.94 304.94 C 235.45 291.89 238.98 275.98 236.58 261.04 C 235.24 248.62 230.50 237.77 224.98 226.76 C 234.48 224.27 243.83 222.81 253.55 225.18 C 261.06 227.11 267.18 232.46 270.81 239.23 C 273.61 244.42 275.07 250.22 275.94 256.03 C 277.75 270.79 276.34 285.41 273.33 299.90 C 287.04 293.62 296.79 282.11 304.57 269.53 C 311.77 257.58 317.28 244.54 321.43 231.23 C 326.02 218.77 327.46 205.13 325.68 191.97 C 323.19 172.07 313.02 154.05 298.48 140.45 C 297.13 139.85 296.48 140.76 295.41 141.40 C 275.56 156.22 252.25 165.45 228.05 170.27 C 220.95 171.59 213.84 172.63 206.60 172.80 C 196.69 155.75 189.82 136.93 189.73 117.00 C 189.97 107.87 191.51 99.05 195.94 90.96 C 199.95 83.44 206.69 77.34 215.22 75.66 C 220.67 74.88 226.19 75.27 231.16 77.80 C 239.03 81.32 244.88 87.21 250.03 93.97 C 254.34 98.88 253.60 105.66 258.37 110.62 C 260.56 113.60 265.46 113.35 268.07 111.14 C 273.06 107.18 276.72 101.06 279.72 95.53 C 288.45 93.83 297.54 91.59 304.02 85.03 C 308.51 80.43 310.14 74.44 309.19 68.13 C 305.25 72.68 301.13 76.65 295.30 78.63 C 291.32 80.13 287.46 79.80 283.32 79.53 C 284.40 71.77 286.21 64.84 284.74 56.99 C 284.00 46.82 279.96 37.21 273.83 29.13 C 266.73 20.36 257.25 13.46 246.82 9.19 C 234.82 3.74 221.39 1.15 208.31 0.12 L 206.60 0.00 L 2744.00 0.00 L 2744.00 167.43 C 2743.61 151.29 2740.24 134.07 2732.00 120.00 C 2723.82 105.68 2710.21 94.30 2694.17 89.95 C 2684.13 86.79 2674.39 87.10 2663.99 87.27 C 2647.58 88.06 2631.39 95.10 2619.79 106.79 C 2615.39 111.07 2611.88 116.04 2608.72 121.29 C 2608.58 110.35 2608.74 99.42 2608.62 88.49 C 2585.60 88.48 2562.58 88.47 2539.56 88.49 C 2539.53 154.19 2539.59 219.90 2539.53 285.60 C 2545.04 285.60 2550.50 285.63 2556.00 286.08 C 2573.45 286.11 2590.99 286.06 2608.44 286.10 C 2608.74 282.07 2608.69 278.04 2608.67 274.00 C 2608.67 243.00 2608.66 212.00 2608.67 181.00 C 2608.92 173.21 2609.94 165.76 2613.93 158.92 C 2618.38 150.83 2626.62 145.26 2635.74 143.96 C 2642.14 143.04 2649.19 143.13 2655.25 145.58 C 2663.91 148.62 2670.57 156.05 2673.30 164.73 C 2674.70 169.37 2675.54 174.15 2675.51 179.00 C 2675.51 214.54 2675.52 250.07 2675.51 285.61 C 2698.34 285.72 2721.17 285.62 2744.00 285.65 L 2744.00 382.00 L 2190.14 382.00 C 2206.91 380.55 2223.02 376.61 2237.22 367.27 C 2251.21 358.30 2262.45 345.24 2268.77 329.83 C 2275.03 315.12 2278.00 298.96 2277.74 283.00 C 2277.72 218.16 2277.82 153.31 2277.69 88.47 C 2254.88 88.47 2232.06 88.53 2209.25 88.43 C 2208.19 98.74 2209.18 109.25 2208.64 119.62 C 2203.85 108.12 2193.85 98.74 2182.83 93.19 C 2169.34 86.23 2154.83 85.27 2139.94 86.68 C 2123.41 88.56 2107.65 96.13 2095.83 107.84 C 2083.55 119.59 2075.49 135.64 2071.17 151.95 C 2067.01 167.76 2066.77 183.77 2067.60 200.00 C 2069.28 221.75 2076.09 242.94 2089.99 260.00 C 2101.44 274.22 2118.09 283.74 2136.03 286.87 C 2152.56 289.59 2171.52 287.84 2186.15 279.12 C 2195.92 273.67 2204.09 264.97 2208.66 254.73 C 2208.89 265.15 2208.79 275.58 2208.77 286.00 C 2208.77 295.67 2206.36 306.30 2199.47 313.47 C 2192.74 320.33 2183.30 322.40 2174.00 322.50 C 2165.90 322.50 2156.69 320.93 2150.16 315.81 C 2145.68 312.34 2143.15 307.55 2141.46 302.25 C 2118.99 302.26 2096.51 302.24 2074.04 302.26 C 2075.39 318.98 2082.35 336.01 2093.17 348.86 C 2101.45 358.57 2111.79 366.49 2123.46 371.70 C 2136.84 377.82 2151.81 380.80 2166.40 382.00 L 0.00 382.00 L 0.00 200.10 C 1.39 226.05 9.28 251.33 22.25 273.80 C 31.19 289.16 41.90 303.33 54.83 315.56 C 53.10 306.02 50.52 296.72 49.61 287.01 C 47.90 273.15 47.05 257.60 52.53 244.44 C 54.30 239.89 57.13 236.36 60.88 233.27 C 58.10 224.07 56.71 214.61 56.60 205.00 C 56.91 194.34 58.84 183.75 62.87 173.85 C 67.45 162.15 74.62 151.98 83.12 142.81 C 66.64 130.58 53.06 114.97 42.93 97.14 C 40.97 93.63 39.28 89.99 37.27 86.51 C 32.86 93.39 28.11 100.01 24.26 107.24 C 10.54 131.31 1.70 157.74 0.00 185.48 L 0.00 0.00 Z" fill="#ffffff" />
<path d="M 192.98 0.00 L 206.60 0.00 L 208.31 0.12 C 221.39 1.15 234.82 3.74 246.82 9.19 C 257.25 13.46 266.73 20.36 273.83 29.13 C 279.96 37.21 284.00 46.82 284.74 56.99 C 286.21 64.84 284.40 71.77 283.32 79.53 C 287.46 79.80 291.32 80.13 295.30 78.63 C 301.13 76.65 305.25 72.68 309.19 68.13 C 310.14 74.44 308.51 80.43 304.02 85.03 C 297.54 91.59 288.45 93.83 279.72 95.53 C 276.72 101.06 273.06 107.18 268.07 111.14 C 265.46 113.35 260.56 113.60 258.37 110.62 C 253.60 105.66 254.34 98.88 250.03 93.97 C 244.88 87.21 239.03 81.32 231.16 77.80 C 226.19 75.27 220.67 74.88 215.22 75.66 C 206.69 77.34 199.95 83.44 195.94 90.96 C 191.51 99.05 189.97 107.87 189.73 117.00 C 189.82 136.93 196.69 155.75 206.60 172.80 C 213.84 172.63 220.95 171.59 228.05 170.27 C 252.25 165.45 275.56 156.22 295.41 141.40 C 296.48 140.76 297.13 139.85 298.48 140.45 C 313.02 154.05 323.19 172.07 325.68 191.97 C 327.46 205.13 326.02 218.77 321.43 231.23 C 317.28 244.54 311.77 257.58 304.57 269.53 C 296.79 282.11 287.04 293.62 273.33 299.90 C 276.34 285.41 277.75 270.79 275.94 256.03 C 275.07 250.22 273.61 244.42 270.81 239.23 C 267.18 232.46 261.06 227.11 253.55 225.18 C 243.83 222.81 234.48 224.27 224.98 226.76 C 230.50 237.77 235.24 248.62 236.58 261.04 C 238.98 275.98 235.45 291.89 227.94 304.94 C 220.26 317.99 209.06 328.33 196.26 336.26 C 172.93 350.41 144.62 356.73 117.52 353.21 C 101.92 350.74 87.25 344.92 75.82 333.75 C 99.33 331.52 122.80 326.31 143.49 314.53 C 157.60 306.57 169.49 295.21 176.39 280.40 C 181.56 269.57 183.30 257.79 182.77 245.86 C 174.88 240.14 166.45 235.20 157.54 231.22 C 149.31 227.68 141.10 225.01 132.01 225.28 C 126.02 225.29 119.87 227.28 115.46 231.44 C 110.29 236.12 107.53 242.36 105.88 249.02 C 101.99 264.08 103.72 281.22 105.51 296.53 C 95.74 295.09 87.85 287.37 82.29 279.68 C 72.89 266.20 67.69 249.86 63.78 234.06 C 59.68 222.05 58.61 209.33 59.72 196.74 C 61.82 176.53 71.56 157.58 85.87 143.29 C 98.53 152.39 112.38 159.34 127.64 162.80 C 136.35 164.69 145.07 166.12 154.02 165.68 C 147.02 150.02 141.45 133.90 138.44 116.98 C 135.84 101.98 134.99 86.20 140.72 71.78 C 142.83 66.13 146.32 61.46 150.11 56.86 C 141.96 53.69 133.10 55.34 126.87 61.50 C 131.49 53.86 138.07 47.91 145.67 43.31 C 152.13 39.15 159.05 37.31 166.35 35.22 C 158.44 31.74 149.61 29.53 141.00 31.42 C 133.02 32.60 126.65 36.67 120.35 41.42 C 123.47 33.07 128.20 25.81 135.15 20.16 C 151.31 6.73 172.47 1.70 192.98 0.00 Z" fill="#35c41a" />
<path d="M 1147.26 37.22 C 1173.07 37.03 1199.08 37.20 1224.91 37.13 C 1224.95 77.67 1224.90 118.20 1224.94 158.73 C 1241.85 141.71 1258.63 124.57 1275.51 107.51 C 1277.31 105.94 1278.24 103.76 1280.96 104.13 C 1310.90 104.19 1340.85 104.07 1370.79 104.19 C 1344.84 131.29 1318.96 158.49 1293.11 185.70 C 1321.13 221.19 1349.09 256.73 1377.07 292.26 C 1345.73 292.28 1314.40 292.29 1283.07 292.25 C 1267.90 272.97 1252.59 253.78 1237.37 234.53 C 1233.13 238.92 1229.11 243.52 1224.93 247.98 C 1224.92 262.74 1224.93 277.51 1224.93 292.27 C 1199.01 292.27 1173.10 292.27 1147.19 292.27 C 1147.15 209.85 1147.19 127.42 1147.17 45.00 C 1147.18 42.41 1147.08 39.80 1147.26 37.22 Z" fill="#000000" />
<path d="M 1421.28 37.36 C 1424.18 37.05 1427.08 36.74 1430.00 36.76 C 1459.29 36.81 1488.72 36.74 1518.00 36.79 C 1523.35 37.24 1528.65 37.36 1534.00 37.50 C 1559.25 39.26 1584.14 47.20 1604.42 62.61 C 1620.07 74.32 1631.95 90.28 1639.48 108.26 C 1649.25 131.87 1651.38 158.89 1647.52 184.01 C 1643.84 207.30 1633.83 229.40 1617.76 246.77 C 1604.55 260.97 1587.53 271.74 1569.20 278.01 C 1553.46 283.33 1536.61 285.76 1520.02 285.64 C 1487.10 285.64 1454.19 285.69 1421.28 285.62 C 1421.28 202.86 1421.27 120.11 1421.28 37.36 Z" fill="#35c41a" />
<path d="M 626.00 47.49 C 659.08 51.39 690.98 60.69 719.69 77.83 C 710.73 97.10 701.78 116.38 692.87 135.67 C 675.18 125.85 656.24 118.40 636.40 114.29 C 636.39 173.61 636.39 232.94 636.40 292.26 C 609.35 292.29 582.30 292.25 555.25 292.28 C 555.20 232.96 555.23 173.64 555.24 114.32 C 535.33 118.35 516.45 125.80 498.75 135.68 C 489.73 116.43 480.84 97.11 471.89 77.81 C 486.44 69.15 502.03 62.31 518.21 57.34 C 553.01 46.63 589.85 43.48 626.00 47.49 Z" fill="#000000" />
<path d="M 344.18 82.09 C 348.75 87.61 352.11 94.23 355.61 100.46 C 368.32 124.64 376.07 151.70 377.57 179.00 C 377.69 188.77 378.13 198.79 376.79 208.49 C 374.89 226.45 369.79 244.21 362.73 260.81 C 352.49 284.56 337.99 305.65 321.01 325.06 C 325.75 311.29 328.07 296.49 328.95 281.98 C 330.11 271.09 329.04 260.96 328.08 250.16 C 327.37 243.42 325.74 236.85 324.71 230.21 C 330.04 215.43 331.36 199.38 328.02 183.99 C 324.62 167.53 315.87 152.79 304.06 140.97 C 303.01 139.88 302.02 138.74 301.05 137.58 C 305.73 133.76 310.35 129.91 314.61 125.62 C 327.37 113.24 337.03 98.31 344.18 82.09 Z" fill="#35c41a" />
<path d="M 1919.99 86.39 C 1929.67 87.28 1939.56 90.04 1947.88 95.16 C 1957.58 100.82 1965.45 109.36 1970.32 119.48 C 1970.54 109.15 1970.35 98.82 1970.46 88.49 C 1993.43 88.48 2016.40 88.44 2039.37 88.52 C 2039.39 154.21 2039.36 219.89 2039.38 285.58 C 2016.41 285.73 1993.42 285.65 1970.44 285.62 C 1970.31 275.96 1970.63 266.28 1970.27 256.63 C 1967.83 258.30 1966.72 261.53 1964.83 263.84 C 1956.84 274.90 1944.88 282.17 1931.81 285.61 C 1914.82 289.78 1896.29 288.73 1880.19 281.69 C 1866.73 275.95 1855.11 266.18 1846.99 254.01 C 1836.07 238.10 1830.48 219.06 1829.06 199.94 C 1827.74 185.39 1828.56 170.54 1831.67 156.26 C 1835.07 140.39 1842.07 125.00 1852.66 112.63 C 1864.08 99.52 1879.76 90.32 1896.94 87.35 C 1904.38 85.85 1912.41 86.09 1919.99 86.39 Z" fill="#35c41a" />
<path d="M 2139.94 86.68 C 2154.83 85.27 2169.34 86.23 2182.83 93.19 C 2193.85 98.74 2203.85 108.12 2208.64 119.62 C 2209.18 109.25 2208.19 98.74 2209.25 88.43 C 2232.06 88.53 2254.88 88.47 2277.69 88.47 C 2277.82 153.31 2277.72 218.16 2277.74 283.00 C 2278.00 298.96 2275.03 315.12 2268.77 329.83 C 2262.45 345.24 2251.21 358.30 2237.22 367.27 C 2223.02 376.61 2206.91 380.55 2190.14 382.00 L 2166.40 382.00 C 2151.81 380.80 2136.84 377.82 2123.46 371.70 C 2111.79 366.49 2101.45 358.57 2093.17 348.86 C 2082.35 336.01 2075.39 318.98 2074.04 302.26 C 2096.51 302.24 2118.99 302.26 2141.46 302.25 C 2143.15 307.55 2145.68 312.34 2150.16 315.81 C 2156.69 320.93 2165.90 322.50 2174.00 322.50 C 2183.30 322.40 2192.74 320.33 2199.47 313.47 C 2206.36 306.30 2208.77 295.67 2208.77 286.00 C 2208.79 275.58 2208.89 265.15 2208.66 254.73 C 2204.09 264.97 2195.92 273.67 2186.15 279.12 C 2171.52 287.84 2152.56 289.59 2136.03 286.87 C 2118.09 283.74 2101.44 274.22 2089.99 260.00 C 2076.09 242.94 2069.28 221.75 2067.60 200.00 C 2066.77 183.77 2067.01 167.76 2071.17 151.95 C 2075.49 135.64 2083.55 119.59 2095.83 107.84 C 2107.65 96.13 2123.41 88.56 2139.94 86.68 Z" fill="#35c41a" />
<path d="M 2447.19 92.03 C 2465.38 98.10 2481.66 109.46 2492.96 125.03 C 2504.38 140.48 2510.16 158.96 2511.51 178.00 C 2512.14 190.91 2511.55 203.69 2508.27 216.23 C 2503.11 237.50 2490.17 256.62 2472.33 269.28 C 2457.61 279.71 2439.90 285.64 2422.03 287.45 C 2415.57 287.68 2409.49 288.66 2403.06 287.91 C 2385.89 287.32 2368.51 282.91 2353.48 274.51 C 2339.47 266.77 2327.58 255.31 2319.48 241.50 C 2309.47 225.06 2305.35 205.09 2305.59 186.00 C 2305.66 166.68 2309.97 147.69 2320.21 131.16 C 2330.76 113.75 2347.31 100.72 2366.27 93.54 C 2371.68 91.57 2376.93 89.67 2382.71 89.02 C 2382.09 88.98 2381.48 88.93 2380.87 88.89 C 2402.49 84.68 2426.20 84.86 2447.19 92.03 Z" fill="#35c41a" />
<path d="M 37.27 86.51 C 39.28 89.99 40.97 93.63 42.93 97.14 C 53.06 114.97 66.64 130.58 83.12 142.81 C 74.62 151.98 67.45 162.15 62.87 173.85 C 58.84 183.75 56.91 194.34 56.60 205.00 C 56.71 214.61 58.10 224.07 60.88 233.27 C 57.13 236.36 54.30 239.89 52.53 244.44 C 47.05 257.60 47.90 273.15 49.61 287.01 C 50.52 296.72 53.10 306.02 54.83 315.56 C 41.90 303.33 31.19 289.16 22.25 273.80 C 9.28 251.33 1.39 226.05 0.00 200.10 L 0.00 185.48 C 1.70 157.74 10.54 131.31 24.26 107.24 C 28.11 100.01 32.86 93.39 37.27 86.51 Z" fill="#35c41a" />
<path d="M 1815.64 86.58 C 1816.01 111.20 1815.73 135.86 1815.78 160.50 C 1801.28 160.83 1786.02 159.20 1772.14 163.81 C 1764.28 166.32 1757.39 171.27 1753.69 178.79 C 1750.04 186.50 1749.36 194.57 1749.50 203.00 C 1749.51 230.54 1749.53 258.07 1749.49 285.61 C 1726.44 285.70 1703.38 285.63 1680.33 285.65 C 1680.33 219.93 1680.30 154.20 1680.34 88.48 C 1703.39 88.49 1726.44 88.45 1749.49 88.51 C 1749.56 100.69 1749.44 112.86 1749.56 125.04 C 1758.83 111.69 1770.71 100.54 1785.58 93.71 C 1795.07 88.96 1805.16 87.38 1815.64 86.58 Z" fill="#35c41a" />
<path d="M 2663.99 87.27 C 2674.39 87.10 2684.13 86.79 2694.17 89.95 C 2710.21 94.30 2723.82 105.68 2732.00 120.00 C 2740.24 134.07 2743.61 151.29 2744.00 167.43 L 2744.00 285.65 C 2721.17 285.62 2698.34 285.72 2675.51 285.61 C 2675.52 250.07 2675.51 214.54 2675.51 179.00 C 2675.54 174.15 2674.70 169.37 2673.30 164.73 C 2670.57 156.05 2663.91 148.62 2655.25 145.58 C 2649.19 143.13 2642.14 143.04 2635.74 143.96 C 2626.62 145.26 2618.38 150.83 2613.93 158.92 C 2609.94 165.76 2608.92 173.21 2608.67 181.00 C 2608.66 212.00 2608.67 243.00 2608.67 274.00 C 2608.69 278.04 2608.74 282.07 2608.44 286.10 C 2590.99 286.06 2573.45 286.11 2556.00 286.08 C 2550.50 285.63 2545.04 285.60 2539.53 285.60 C 2539.59 219.90 2539.53 154.19 2539.56 88.49 C 2562.58 88.47 2585.60 88.48 2608.62 88.49 C 2608.74 99.42 2608.58 110.35 2608.72 121.29 C 2611.88 116.04 2615.39 111.07 2619.79 106.79 C 2631.39 95.10 2647.58 88.06 2663.99 87.27 Z" fill="#35c41a" />
<path d="M 1490.37 97.43 C 1499.53 97.29 1508.73 97.32 1517.90 97.46 C 1533.46 97.93 1548.48 102.24 1560.38 112.63 C 1570.42 121.53 1576.51 133.98 1578.38 147.18 C 1580.61 161.34 1579.48 176.60 1573.94 189.91 C 1567.85 204.28 1555.35 215.04 1540.58 219.79 C 1524.86 225.43 1507.00 223.31 1490.26 223.75 C 1490.24 184.50 1490.26 145.25 1490.25 106.00 C 1490.26 103.15 1490.14 100.27 1490.37 97.43 Z" fill="#ffffff" />
<path d="M 798.01 100.76 C 813.68 101.42 828.93 105.64 840.48 116.75 C 840.50 112.54 840.50 108.34 840.50 104.14 C 866.42 104.14 892.35 104.15 918.27 104.14 C 918.30 166.84 918.29 229.55 918.28 292.26 C 893.61 292.27 868.95 292.29 844.29 292.25 C 844.29 287.10 844.30 281.94 844.27 276.78 C 839.23 282.16 833.29 286.50 826.50 289.42 C 813.47 295.16 800.04 296.02 786.00 295.45 C 759.67 294.00 734.43 280.36 719.53 258.48 C 708.94 243.35 703.21 225.37 702.16 206.99 C 700.71 185.66 703.96 164.36 714.58 145.59 C 722.35 131.82 733.51 120.11 747.35 112.37 C 762.64 103.54 780.41 99.64 798.01 100.76 Z" fill="#000000" />
<path d="M 1061.98 101.63 C 1081.11 103.75 1099.50 107.36 1116.84 116.04 C 1109.86 133.19 1102.60 150.23 1095.57 167.36 C 1080.11 158.72 1062.70 154.07 1045.00 153.66 C 1037.65 153.46 1029.54 153.48 1022.46 155.66 C 1019.79 156.64 1016.76 158.00 1015.98 161.03 C 1014.91 164.61 1017.60 167.23 1020.75 168.30 C 1026.62 170.23 1032.96 170.89 1039.05 171.87 C 1054.30 173.70 1069.18 175.68 1084.00 179.96 C 1093.54 182.71 1102.18 187.83 1109.45 194.56 C 1121.75 205.68 1124.77 222.15 1123.41 238.03 C 1121.64 253.76 1112.42 267.63 1099.61 276.65 C 1084.42 287.31 1066.26 292.59 1047.97 294.62 C 1036.74 296.04 1025.40 295.57 1014.00 295.36 C 1001.68 294.84 989.27 292.85 977.23 290.25 C 964.68 287.25 952.30 283.55 941.00 277.15 C 948.11 260.08 955.22 243.00 962.31 225.91 C 980.26 236.08 1000.47 241.32 1020.99 242.59 C 1028.86 242.69 1037.52 243.12 1045.18 241.12 C 1048.86 240.03 1052.76 237.34 1052.00 232.98 C 1051.43 229.58 1047.73 228.31 1044.84 227.52 C 1037.98 225.99 1030.97 225.04 1023.99 224.25 C 1010.79 222.59 997.44 220.41 984.55 217.11 C 972.30 214.04 960.93 206.81 953.03 196.96 C 945.39 187.01 943.41 174.22 943.87 161.99 C 944.31 151.33 948.12 141.03 954.58 132.57 C 963.76 120.25 978.20 112.37 992.49 107.45 C 1014.68 100.08 1038.89 99.65 1061.98 101.63 Z" fill="#000000" />
<path d="M 2168.49 146.73 C 2178.63 145.62 2189.08 148.25 2196.60 155.37 C 2204.23 162.04 2208.22 172.02 2208.66 182.01 C 2209.02 190.11 2208.88 197.90 2205.75 205.53 C 2202.08 215.03 2193.87 223.32 2183.94 226.07 C 2175.87 228.51 2166.90 228.09 2159.01 225.14 C 2151.99 222.39 2146.02 217.16 2142.36 210.56 C 2137.25 201.71 2136.37 190.23 2137.40 180.27 C 2138.03 170.90 2142.05 161.45 2149.13 155.13 C 2154.52 150.23 2161.31 147.60 2168.49 146.73 Z" fill="#ffffff" />
<path d="M 2400.60 146.83 C 2406.07 145.53 2411.71 145.54 2417.17 146.91 C 2425.79 149.03 2433.20 155.65 2437.15 163.49 C 2440.96 171.14 2441.95 179.55 2441.74 188.00 C 2441.85 194.97 2440.75 201.87 2438.11 208.33 C 2435.14 215.44 2429.61 221.75 2422.67 225.18 C 2417.17 227.85 2411.06 228.73 2405.00 228.27 C 2396.15 227.31 2387.84 222.51 2382.84 215.09 C 2377.19 207.11 2375.42 196.60 2375.53 187.00 C 2375.41 179.52 2376.54 171.62 2379.61 164.74 C 2383.54 156.00 2391.24 149.15 2400.60 146.83 Z" fill="#ffffff" />
<path d="M 1925.41 147.57 C 1933.31 145.61 1942.02 146.35 1949.47 149.61 C 1961.94 155.23 1969.91 168.44 1969.89 181.99 C 1969.83 189.26 1970.55 196.04 1968.12 202.95 C 1964.87 213.51 1956.64 222.66 1945.95 225.94 C 1933.27 229.79 1917.99 227.22 1908.76 217.23 C 1900.93 208.91 1898.51 198.14 1898.40 187.00 C 1898.45 178.44 1900.07 169.20 1904.83 161.92 C 1909.60 154.73 1916.86 149.30 1925.41 147.57 Z" fill="#ffffff" />
<path d="M 804.56 161.88 C 810.22 160.85 816.42 160.98 821.85 163.05 C 829.88 165.87 836.36 172.87 839.13 180.86 C 841.82 188.12 842.16 195.80 841.64 203.46 C 840.86 212.18 838.18 220.58 831.80 226.85 C 821.07 237.80 801.78 237.92 790.94 227.07 C 784.26 220.74 781.51 211.98 780.81 203.01 C 780.20 194.45 780.99 184.86 784.96 177.11 C 788.84 169.39 796.07 163.67 804.56 161.88 Z" fill="#ffffff" />
</svg>
