<?xml version="1.0" standalone="no"?>
<!DOCTYPE svg PUBLIC "-//W3C//DTD SVG 20010904//EN"
 "http://www.w3.org/TR/2001/REC-SVG-20010904/DTD/svg10.dtd">
<svg version="1.0" xmlns="http://www.w3.org/2000/svg"
 width="5000.000000pt" height="696.000000pt" viewBox="0 0 5000.000000 696.000000"
 preserveAspectRatio="xMidYMid meet">
<metadata>
Created by potrace 1.16, written by Peter Selinger 2001-2019
</metadata>
<g transform="translate(0.000000,696.000000) scale(0.100000,-0.100000)"
fill="#000000" stroke="none">
<path d="M20900 3960 l0 -2330 715 0 715 0 0 406 0 407 37 41 c20 22 69 76
108 118 l71 78 415 -525 414 -524 864 -1 c689 0 861 3 854 12 -6 7 -347 441
-758 963 -411 523 -752 955 -756 961 -6 8 225 258 693 749 387 405 705 741
706 746 2 5 -344 9 -835 9 l-838 1 -487 -493 -487 -493 -1 1103 0 1102 -715 0
-715 0 0 -2330z"/>
<path d="M10610 6124 c-392 -27 -614 -60 -950 -144 -346 -86 -727 -237 -1002
-397 l-66 -38 246 -531 246 -532 131 67 c241 124 505 225 744 286 76 19 141
35 144 35 4 0 7 -729 7 -1620 l0 -1620 745 0 745 0 0 1620 c0 891 3 1620 8
1620 4 0 68 -16 142 -35 248 -63 475 -149 716 -271 l162 -81 243 525 c134 288
245 527 247 531 2 7 -156 96 -293 164 -118 59 -391 166 -535 211 -312 96 -645
163 -980 196 -109 11 -604 21 -700 14z"/>
<path d="M14220 5119 c-646 -82 -1160 -526 -1353 -1169 -123 -409 -108 -924
40 -1320 219 -588 716 -979 1333 -1051 135 -15 426 -7 535 16 244 51 423 137
568 274 l37 35 0 -137 0 -137 680 0 680 0 0 1720 0 1720 -715 0 -715 0 0 -111
0 -112 -32 27 c-62 51 -167 117 -235 147 -89 40 -273 87 -387 99 -107 11 -344
11 -436 -1z m734 -1129 c139 -47 241 -139 305 -272 53 -113 72 -205 73 -358 0
-224 -41 -363 -145 -491 -119 -146 -325 -216 -517 -175 -106 23 -174 60 -256
141 -119 117 -171 250 -181 461 -9 197 30 376 105 487 46 67 148 156 211 184
126 56 283 65 405 23z"/>
<path d="M18690 5124 c-340 -32 -584 -93 -820 -205 -354 -168 -572 -415 -652
-739 -17 -65 -22 -117 -22 -225 -1 -362 108 -588 379 -786 197 -144 479 -222
1084 -299 378 -48 466 -72 496 -136 31 -65 -9 -125 -105 -159 -107 -38 -376
-44 -604 -15 -312 40 -570 115 -806 236 -57 29 -106 52 -107 50 -6 -6 -393
-939 -391 -941 2 -2 35 -18 73 -37 240 -120 594 -217 980 -269 194 -27 636
-37 822 -20 692 65 1169 327 1373 753 54 113 80 220 87 358 10 193 -21 356
-94 509 -39 82 -59 108 -142 192 -231 233 -477 328 -1051 408 -80 11 -215 30
-300 42 -261 36 -343 64 -369 127 -17 40 6 95 51 122 156 96 639 87 999 -18
94 -28 244 -89 316 -128 34 -19 66 -34 71 -34 9 0 392 908 392 930 0 16 -143
80 -286 128 -172 58 -379 102 -649 138 -106 14 -627 27 -725 18z"/>
</g>
</svg>
