<?xml version="1.0" encoding="UTF-8" standalone="no"?>
<!-- Created with Inkscape (http://www.inkscape.org/) -->

<svg
   xmlns:dc="http://purl.org/dc/elements/1.1/"
   xmlns:cc="http://creativecommons.org/ns#"
   xmlns:rdf="http://www.w3.org/1999/02/22-rdf-syntax-ns#"
   xmlns:svg="http://www.w3.org/2000/svg"
   xmlns="http://www.w3.org/2000/svg"
   xmlns:sodipodi="http://sodipodi.sourceforge.net/DTD/sodipodi-0.dtd"
   xmlns:inkscape="http://www.inkscape.org/namespaces/inkscape"
   width="160.64581mm"
   height="161.00314mm"
   viewBox="0 0 160.64581 161.00314"
   version="1.1"
   id="svg4807"
   inkscape:version="0.92.1 r15371"
   sodipodi:docname="cart-wheels-wirelizard.svg">
  <defs
     id="defs4801" />
  <sodipodi:namedview
     id="base"
     pagecolor="#ffffff"
     bordercolor="#666666"
     borderopacity="1.0"
     inkscape:pageopacity="0.0"
     inkscape:pageshadow="2"
     inkscape:zoom="0.98994949"
     inkscape:cx="176.06087"
     inkscape:cy="359.73376"
     inkscape:document-units="mm"
     inkscape:current-layer="layer1"
     showgrid="false"
     fit-margin-top="0"
     fit-margin-left="0"
     fit-margin-right="0"
     fit-margin-bottom="0"
     inkscape:window-width="1920"
     inkscape:window-height="1017"
     inkscape:window-x="-8"
     inkscape:window-y="-8"
     inkscape:window-maximized="1" />
  <metadata
     id="metadata4804">
    <rdf:RDF>
      <cc:Work
         rdf:about="">
        <dc:format>image/svg+xml</dc:format>
        <dc:type
           rdf:resource="http://purl.org/dc/dcmitype/StillImage" />
        <dc:title></dc:title>
        <cc:license
           rdf:resource="http://creativecommons.org/publicdomain/zero/1.0/" />
      </cc:Work>
      <cc:License
         rdf:about="http://creativecommons.org/publicdomain/zero/1.0/">
        <cc:permits
           rdf:resource="http://creativecommons.org/ns#Reproduction" />
        <cc:permits
           rdf:resource="http://creativecommons.org/ns#Distribution" />
        <cc:permits
           rdf:resource="http://creativecommons.org/ns#DerivativeWorks" />
      </cc:License>
    </rdf:RDF>
  </metadata>
  <g
     inkscape:label="Layer 1"
     inkscape:groupmode="layer"
     id="layer1"
     transform="translate(-33.447926,-52.456762)">
    <g
       id="g5413"
       transform="translate(15.875,-10.583333)">
      <path
         inkscape:connector-curvature="0"
         style="opacity:1;fill:#d38d5f;fill-opacity:1;stroke:#000000;stroke-width:0.23364812;stroke-miterlimit:3.66666675;stroke-dasharray:none;stroke-dashoffset:0;stroke-opacity:1"
         d="m 55.283185,150.95109 v 30.63165 l -21.659646,-21.65985 -2.098701,2.0987 21.659647,21.65964 H 22.553028 v 2.96799 h 30.631457 l -21.659647,21.65963 2.098701,2.0987 21.659646,-21.65963 v 30.63143 h 2.968008 v -30.63121 l 21.659647,21.65941 2.0987,-2.0987 -21.659646,-21.65963 H 90.98135 v -2.96799 H 60.349894 l 21.659646,-21.65964 -2.0987,-2.0987 -21.659647,21.65963 v -30.63143 z m 1.484108,30.81442 c 1.910777,2e-5 3.4598,1.52206 3.459813,3.3996 -1.3e-5,1.87754 -1.549036,3.39959 -3.459813,3.3996 -1.910763,-1e-5 -3.460012,-1.52206 -3.460021,-3.3996 9e-6,-1.87754 1.549258,-3.39958 3.460021,-3.3996 z"
         id="path12064" />
      <path
         inkscape:connector-curvature="0"
         style="fill:#d38d5f;fill-opacity:1;stroke:#000000;stroke-width:0.23364812;stroke-miterlimit:3.66666675;stroke-dasharray:none;stroke-opacity:1"
         d="m 56.767293,178.26245 c -3.878954,5e-5 -7.023679,3.09046 -7.023706,6.90266 2.7e-5,3.81222 3.144739,6.90262 7.023706,6.90266 3.878967,-4e-5 7.023472,-3.09044 7.023494,-6.90266 -2.2e-5,-3.8122 -3.144527,-6.90261 -7.023494,-6.90266 z m 0,3.50306 c 1.910777,2e-5 3.4598,1.52206 3.459813,3.3996 -1.3e-5,1.87754 -1.549036,3.39959 -3.459813,3.3996 -1.910763,-1e-5 -3.460012,-1.52206 -3.460021,-3.3996 9e-6,-1.87754 1.549258,-3.39958 3.460021,-3.3996 z"
         id="path12066" />
      <path
         style="fill:#d38d5f;stroke:#000000;stroke-width:0.23364815;stroke-miterlimit:3.66666675;stroke-dasharray:none;stroke-opacity:1"
         d="M 56.76709,146.40401 A 39.077452,38.761252 0 0 0 17.68975,185.16532 39.077452,38.761252 0 0 0 56.76709,223.92641 39.077452,38.761252 0 0 0 95.844637,185.16532 39.077452,38.761252 0 0 0 56.76709,146.40401 Z m -8.83e-4,5.09407 a 33.889316,33.668389 0 0 1 33.889366,33.66833 33.889316,33.668389 0 0 1 -33.889366,33.66832 33.889316,33.668389 0 0 1 -33.889362,-33.66832 33.889316,33.668389 0 0 1 33.889362,-33.66833 z"
         id="path12068"
         inkscape:connector-curvature="0" />
    </g>
    <g
       id="g5436"
       transform="translate(0,-10.583333)">
      <path
         id="path12132"
         transform="scale(0.26458333)"
         d="m 579.83789,570.52344 v 104.01562 l -43.95703,-94.26953 -10.16797,4.74024 41.20703,88.36914 -68.94531,-68.94532 -7.93164,7.93164 73.54883,73.54883 -97.74219,-35.57617 -3.83594,10.54102 91.625,33.34961 h -97.50586 v 11.21679 h 104.01563 l -94.26953,43.95899 4.74023,10.16601 88.36914,-41.20703 -68.94531,68.94531 7.93164,7.93164 73.54883,-73.54687 -35.57422,97.74023 10.54101,3.83594 33.34766,-91.62305 v 97.50391 h 11.2168 V 725.13672 l 43.95898,94.26758 10.16602,-4.74024 -41.20508,-88.36718 68.94336,68.94335 7.93359,-7.93164 -73.54687,-73.54687 97.73828,35.57422 3.83789,-10.54102 -91.625,-33.34961 h 97.50391 V 694.22852 H 610.74609 l 94.26758,-43.95899 -4.74023,-10.16601 -88.36719,41.20703 68.94531,-68.94532 -7.93359,-7.93164 -73.54688,73.54688 35.57422,-97.74024 -10.54101,-3.83593 -33.34961,91.625 v -97.50586 z m 5.60938,116.46484 c 0.43421,10e-6 0.8618,0.0238 1.28515,0.0644 0.0352,0.004 0.0703,0.006 0.10547,0.01 0.27928,0.029 0.55243,0.077 0.82617,0.12305 0.28132,0.0513 0.56308,0.0996 0.84375,0.16992 0.0354,0.008 0.0702,0.0187 0.10547,0.0273 0.41101,0.1065 0.8212,0.23262 1.22852,0.38086 5.5066,2.0043 8.87178,7.25899 8.64843,12.73242 -8.7e-4,0.0169 -10e-4,0.0339 -0.002,0.0508 -0.0153,0.34115 -0.0541,0.68334 -0.0977,1.02539 -0.0246,0.17871 -0.05,0.35689 -0.082,0.5332 -0.0302,0.17618 -0.0676,0.35143 -0.10547,0.52734 -0.0762,0.33716 -0.15713,0.67339 -0.25976,1 -0.003,0.008 -0.005,0.017 -0.008,0.0254 -0.002,0.006 -0.006,0.0115 -0.008,0.0176 -1.66148,5.22086 -6.6196,9.00974 -12.48046,9.00977 -0.43293,-1e-5 -0.86107,-0.0241 -1.28321,-0.0645 -0.0377,-0.004 -0.0755,-0.005 -0.11328,-0.01 -0.28571,-0.0298 -0.56383,-0.0813 -0.84375,-0.12891 -0.26503,-0.0488 -0.53046,-0.0945 -0.79492,-0.16015 -0.0504,-0.0118 -0.10023,-0.0248 -0.15039,-0.0371 -0.40445,-0.10545 -0.80813,-0.22911 -1.20899,-0.375 -5.51251,-2.00643 -8.87955,-7.27014 -8.64843,-12.75 1.3e-4,-0.003 -1.4e-4,-0.007 0,-0.01 0.0151,-0.35278 0.0542,-0.70681 0.0996,-1.06055 0.0227,-0.1637 0.0472,-0.32659 0.0762,-0.48828 0.033,-0.19598 0.0727,-0.39223 0.11523,-0.58789 0.074,-0.32392 0.15354,-0.64678 0.25196,-0.96094 0.006,-0.0203 0.0133,-0.0403 0.0195,-0.0605 1.66354,-5.21781 6.62187,-9.00385 12.48047,-9.00391 z"
         style="opacity:1;fill:#d38d5f;fill-opacity:1;stroke:#000000;stroke-width:0.88307953;stroke-miterlimit:3.66666675;stroke-dasharray:none;stroke-dashoffset:0;stroke-opacity:1"
         inkscape:connector-curvature="0" />
      <path
         id="path12112"
         d="m 154.89957,178.26246 c -3.87895,4e-5 -7.02368,3.09046 -7.0237,6.90266 2e-5,3.81221 3.14474,6.90262 7.0237,6.90266 3.87897,-4e-5 7.02348,-3.09045 7.0235,-6.90266 -2e-5,-3.8122 -3.14453,-6.90262 -7.0235,-6.90266 z m 0,3.50306 c 1.91078,2e-5 3.4598,1.52206 3.45982,3.3996 -2e-5,1.87754 -1.54904,3.39959 -3.45982,3.3996 -1.91076,-1e-5 -3.46001,-1.52206 -3.46002,-3.3996 1e-5,-1.87754 1.54926,-3.39958 3.46002,-3.3996 z"
         style="fill:#d38d5f;fill-opacity:1;stroke:#000000;stroke-width:0.23364812;stroke-miterlimit:3.66666675;stroke-dasharray:none;stroke-opacity:1"
         inkscape:connector-curvature="0" />
      <path
         inkscape:connector-curvature="0"
         id="path12114"
         d="m 154.89937,146.40401 a 39.077452,38.761252 0 0 0 -39.07734,38.76132 39.077452,38.761252 0 0 0 39.07734,38.76109 39.077452,38.761252 0 0 0 39.07755,-38.76109 39.077452,38.761252 0 0 0 -39.07755,-38.76132 z m -8.8e-4,5.09408 a 33.889316,33.668389 0 0 1 33.88936,33.66833 33.889316,33.668389 0 0 1 -33.88936,33.66831 33.889316,33.668389 0 0 1 -33.88936,-33.66831 33.889316,33.668389 0 0 1 33.88936,-33.66833 z"
         style="fill:#d38d5f;stroke:#000000;stroke-width:0.23364815;stroke-miterlimit:3.66666675;stroke-dasharray:none;stroke-opacity:1" />
    </g>
    <g
       id="g12203"
       transform="matrix(0.44153979,0,0,0.44153979,-21.841794,401.16045)">
      <path
         id="rect12153"
         transform="scale(0.26458333)"
         d="m 795.91602,-2945.6074 v 266.8144 c 3.8986,-1.8137 8.25547,-2.8319 12.85546,-2.832 4.5009,1e-4 8.76775,0.9778 12.60157,2.7188 v -266.7012 z m -235.66016,136.0605 -12.72852,22.0449 231.23438,133.504 c 0.59891,-9.1327 5.41901,-17.1317 12.56445,-22.1407 z m 496.77934,0 -230.93364,133.3281 c 7.17285,4.9782 12.02608,12.9578 12.66797,22.0821 l 230.99417,-133.3653 z m -278.17387,160.6055 -231.33399,133.5586 12.72852,22.0449 232.07617,-133.9902 c -7.37267,-4.7383 -12.50108,-12.564 -13.4707,-21.6133 z m 59.80273,0.1348 c -1.01157,9.0417 -6.17319,16.8501 -13.57422,21.5566 l 231.94536,133.9121 12.7285,-22.0449 z m -42.74804,23.457 v 268.0723 h 25.45703 v -267.959 c -3.83382,1.7409 -8.10067,2.7187 -12.60157,2.7187 -4.6,0 -8.95686,-1.0182 -12.85546,-2.832 z"
         style="opacity:1;fill:#d38d5f;fill-opacity:1;stroke:#000000;stroke-width:1.99999988;stroke-miterlimit:3.66666675;stroke-dasharray:none;stroke-dashoffset:0;stroke-opacity:1"
         inkscape:connector-curvature="0" />
      <path
         style="fill:#d38d5f;stroke:#000000;stroke-width:0.5291667;stroke-miterlimit:3.66666675;stroke-dasharray:none;stroke-opacity:1"
         d="m 213.98725,-789.48007 a 88.502674,87.786543 0 0 0 -88.50242,87.78669 88.502674,87.786543 0 0 0 88.50242,87.78618 88.502674,87.786543 0 0 0 88.50289,-87.78618 88.502674,87.786543 0 0 0 -88.50289,-87.78669 z m -0.002,11.53707 a 76.752575,76.252219 0 0 1 76.75269,76.25209 76.752575,76.252219 0 0 1 -76.75269,76.25205 76.752575,76.252219 0 0 1 -76.75268,-76.25205 76.752575,76.252219 0 0 1 76.75268,-76.25209 z"
         id="path12146"
         inkscape:connector-curvature="0" />
      <path
         inkscape:connector-curvature="0"
         style="fill:#d38d5f;fill-opacity:1;stroke:#000000;stroke-width:0.52916664;stroke-miterlimit:3.66666675;stroke-dasharray:none;stroke-opacity:1"
         d="m 213.98771,-717.32701 c -8.78506,10e-5 -15.90724,6.99927 -15.9073,15.63315 6e-5,8.63391 7.12221,15.63306 15.9073,15.63316 8.78509,-10e-5 15.90677,-6.99925 15.90682,-15.63316 -5e-5,-8.63388 -7.12173,-15.63305 -15.90682,-15.63315 z m 0,7.93373 c 4.32753,5e-5 7.83576,3.44717 7.83579,7.69942 -3e-5,4.25225 -3.50826,7.6994 -7.83579,7.69942 -4.3275,-2e-5 -7.83624,-3.44717 -7.83626,-7.69942 2e-5,-4.25225 3.50876,-7.69937 7.83626,-7.69942 z"
         id="path12144" />
    </g>
    <g
       id="g5423">
      <path
         id="path12192"
         transform="scale(0.26458333)"
         d="m 579.77148,215.59375 v 108.91211 l -54.45703,-94.32031 -9.73437,5.62109 54.45703,94.32031 -94.32031,-54.45703 -5.61914,9.73438 94.3164,54.45508 h -108.9082 v 11.24023 h 108.91211 l -94.32031,54.45508 5.61914,9.73437 94.32422,-54.45898 -54.45899,94.32422 9.73438,5.61914 54.45507,-94.32032 v 108.91211 h 11.24024 v -108.9082 l 54.45508,94.31641 9.73437,-5.61914 -54.45703,-94.32032 94.32031,54.45508 5.6211,-9.73437 -94.31836,-54.45508 h 108.9082 l 0.002,-11.24023 -108.91601,0.002 94.32422,-54.45703 -5.6211,-9.73438 -94.32031,54.45508 54.45703,-94.32031 -9.73437,-5.61914 -54.45508,94.31836 V 215.59375 Z m 5.67579,116.55859 c 1.98731,4e-5 3.87167,0.43246 5.56445,1.20118 v -0.0332 c 0.73422,0.337 1.43812,0.73948 2.10156,1.21094 l -0.0137,0.008 c 0.36034,0.25009 0.70256,0.5215 1.03516,0.80469 0.0433,0.0379 0.09,0.0708 0.13281,0.10937 0.12872,0.11251 0.24303,0.24015 0.36719,0.35743 0.61374,0.59915 1.18442,1.25469 1.67968,1.98828 l 0.0234,-0.0391 c 0.46801,0.65982 0.87767,1.36047 1.2168,2.10156 h -0.10352 c 1.60932,3.68073 1.35933,7.80465 -0.43164,11.23828 h 0.26172 c -0.32515,0.62834 -0.70446,1.22257 -1.125,1.78711 l -0.11328,-0.19531 c -1.08163,1.51208 -2.49767,2.82665 -4.21875,3.82031 -1.24149,0.71679 -2.54837,1.20358 -3.875,1.49219 -0.8118,0.15308 -1.64464,0.24804 -2.50195,0.24804 -2.03108,0 -3.9544,-0.45109 -5.67579,-1.25195 v 0.17773 c -0.61211,-0.26961 -1.20545,-0.58092 -1.77148,-0.94335 l 0.1875,-0.10743 c -3.25531,-2.09214 -5.51912,-5.54733 -5.94727,-9.54297 l -0.0957,0.0547 c -0.0732,-0.77511 -0.0717,-1.55019 -0.006,-2.32031 l 0.0566,0.0332 c 0.16224,-2.47282 1.03146,-4.75478 2.40235,-6.66211 0.11917,-0.16511 0.25174,-0.32223 0.3789,-0.48242 0.16986,-0.21438 0.3386,-0.42942 0.52149,-0.63281 0.14166,-0.15753 0.29539,-0.30552 0.44531,-0.45703 0.18696,-0.18874 0.37209,-0.37926 0.57031,-0.55664 0.15043,-0.13488 0.31316,-0.25981 0.47071,-0.38867 0.22902,-0.18674 0.45563,-0.37533 0.69726,-0.54688 0.35199,-0.25112 0.7114,-0.49408 1.09375,-0.71484 0.33376,-0.19269 0.67522,-0.35662 1.01758,-0.51758 1.71595,-0.79465 3.63159,-1.2402 5.6543,-1.24024 z"
         style="opacity:1;fill:#d38d5f;fill-opacity:1;stroke:#000000;stroke-width:0.88307953;stroke-miterlimit:3.66666675;stroke-dasharray:none;stroke-dashoffset:0;stroke-opacity:1"
         inkscape:connector-curvature="0" />
      <path
         inkscape:connector-curvature="0"
         id="path12188"
         d="m 154.89937,52.573586 a 39.077452,38.761252 0 0 0 -39.07734,38.761316 39.077452,38.761252 0 0 0 39.07734,38.761088 39.077452,38.761252 0 0 0 39.07755,-38.761088 39.077452,38.761252 0 0 0 -39.07755,-38.761316 z m -8.8e-4,5.094075 a 33.889316,33.668389 0 0 1 33.88936,33.668332 33.889316,33.668389 0 0 1 -33.88936,33.668317 33.889316,33.668389 0 0 1 -33.88936,-33.668317 33.889316,33.668389 0 0 1 33.88936,-33.668332 z"
         style="fill:#d38d5f;stroke:#000000;stroke-width:0.23364815;stroke-miterlimit:3.66666675;stroke-dasharray:none;stroke-opacity:1" />
      <path
         id="path12190"
         d="m 154.89957,84.432033 c -3.87895,4.4e-5 -7.02368,3.090456 -7.0237,6.902657 2e-5,3.812215 3.14474,6.902618 7.0237,6.902663 3.87897,-4.5e-5 7.02348,-3.090448 7.0235,-6.902663 -2e-5,-3.812201 -3.14453,-6.902613 -7.0235,-6.902657 z m 0,3.503057 c 1.91078,2.2e-5 3.4598,1.522063 3.45982,3.3996 -2e-5,1.877538 -1.54904,3.399592 -3.45982,3.399601 -1.91076,-9e-6 -3.46001,-1.522063 -3.46002,-3.399601 1e-5,-1.877537 1.54926,-3.399578 3.46002,-3.3996 z"
         style="fill:#d38d5f;fill-opacity:1;stroke:#000000;stroke-width:0.23364812;stroke-miterlimit:3.66666675;stroke-dasharray:none;stroke-opacity:1"
         inkscape:connector-curvature="0" />
    </g>
  </g>
</svg>
