<?xml version="1.0" encoding="UTF-8" standalone="no"?>
<!-- Created with Inkscape (http://www.inkscape.org/) -->
<svg xmlns:inkscape="http://www.inkscape.org/namespaces/inkscape" xmlns:rdf="http://www.w3.org/1999/02/22-rdf-syntax-ns#" xmlns="http://www.w3.org/2000/svg" xmlns:xlink="http://www.w3.org/1999/xlink" xmlns:ns1="http://sozi.baierouge.fr" xmlns:cc="http://creativecommons.org/ns#" xmlns:sodipodi="http://sodipodi.sourceforge.net/DTD/sodipodi-0.dtd" xmlns:dc="http://purl.org/dc/elements/1.1/" id="svg2" xml:space="preserve" viewBox="0 0 47.855 33.976" version="1.1" inkscape:version="0.91 r13725">
  <g id="g10" transform="matrix(1.25 0 0 -1.25 0 33.976)">
    <g id="g12">
      <path id="path14" style="fill-rule:evenodd;fill:#d6c999" d="m38.004 24.142c-0.082-0.453-0.84-0.84-2.281-1.16l-0.239 0.16-0.242 0.078c0.055 0.055 0.121 0.094 0.203 0.121v0.039c-0.109-0.027-0.242-0.039-0.402-0.039l-0.598 0.282-0.601 0.117 0.281 0.121 0.598 0.359-0.559-0.359c0.426 0.133 1.055 0.105 1.879-0.078 0.242 0.023 0.535 0.132 0.883 0.32 0.183 0.078 0.453 0.223 0.797 0.437 0.109-0.132 0.199-0.265 0.281-0.398zm-18.559 0.117-0.441-0.117c-0.106-0.027-0.215-0.055-0.32-0.082-0.133-0.051-0.282-0.133-0.442-0.238l-0.078 0.078c0.824 0.562 1.359 0.988 1.598 1.281 0.054 0.078 0.281 0.281 0.683 0.602 0.051 0.078 0.133 0.226 0.239 0.437 0.078 0.188 0.16 0.32 0.238 0.403 0.242 0.21 0.535 0.292 0.883 0.238h-0.082c-0.344-1.199-0.746-1.946-1.2-2.238-0.425-0.137-0.785-0.254-1.078-0.364zm5.918-0.238c-0.133 0.027-0.265 0.039-0.398 0.039h-0.36c0.106 0.082 0.211 0.16 0.317 0.242 0.64 0.453 1.109 0.934 1.402 1.438 0.293 0.453 0.614 0.695 0.961 0.722-0.082-0.082-0.281-0.359-0.601-0.839-0.348-0.508-0.625-0.883-0.84-1.122-0.188-0.16-0.348-0.32-0.481-0.48zm0 2.281-0.32 0.321-0.398-0.043c-0.083-0.051-0.176-0.2-0.282-0.438-0.105-0.266-0.187-0.426-0.238-0.48-0.187-0.293-0.563-0.602-1.121-0.922-0.266-0.211-0.492-0.399-0.68-0.559-0.054 0.027-0.121 0.039-0.199 0.039h-0.121v0.039l-0.442 0.043h-0.039c-0.05 0.024-0.093 0.039-0.121 0.039l0.203 0.121c-0.027-0.027-0.043-0.066-0.043-0.121 0.403 0.133 0.895 0.52 1.481 1.16 0.055 0.055 0.199 0.293 0.441 0.719 0.188 0.293 0.36 0.496 0.52 0.602 0.238 0.133 0.547 0.093 0.918-0.121 0.055-0.028 0.094-0.055 0.121-0.078 0.293-0.215 0.469-0.469 0.519-0.762v-0.078c0.028-0.243-0.171-0.547-0.597-0.922-0.481-0.375-0.774-0.602-0.883-0.68 0.109 0.106 0.457 0.387 1.043 0.84l0.117 0.48 0.32 0.36-0.16 0.359-0.039 0.082zm1.922-2.16c0-0.027 0.012-0.055 0.039-0.082 0.426 0.082 0.906 0.359 1.438 0.84 0.695 0.64 1.121 1.015 1.281 1.121 0.508 0.32 1.293 0.707 2.363 1.16 0.078-0.105 0.172-0.238 0.278-0.398l-0.122 0.117-0.277-0.078c0.024-0.133 0.012-0.254-0.043-0.36l-0.437-0.48c-0.293-0.133-0.481-0.242-0.563-0.32l-2.359-1.559h-0.238c-0.614-0.027-1.122-0.055-1.52-0.082l0.16 0.121zm4.438-0.281c-0.161 0.054-0.305 0.094-0.438 0.121h-0.082c-0.105 0.019-0.183 0.035-0.242 0.039l1.363 0.922c0.024 0.027 0.414 0.144 1.16 0.359 0.477 0.16 1.161 0.453 2.039 0.879l-1.082-0.558c-1.492-0.883-2.359-1.43-2.597-1.641l-0.121-0.121zm4.761 1.519-0.441 0.723-0.16 0.277c0.16-0.187 0.359-0.519 0.601-1z" inkscape:connector-curvature="0"/>
      <path id="path16" style="fill-rule:evenodd;fill:#a29873" d="m35.723 22.982c1.441 0.32 2.199 0.707 2.281 1.16v0.039c0.133-0.215 0.226-0.414 0.281-0.601v-0.118c0-0.082-0.015-0.16-0.039-0.242-0.016-0.027-0.027-0.051-0.043-0.078-0.105-0.187-0.348-0.402-0.719-0.641-0.027 0-0.039-0.015-0.039-0.039h-0.039l-0.023-0.019c-0.094-0.02-0.195-0.039-0.301-0.063h-0.359c-0.028 0-0.36 0.2-1 0.602zm-15.438 1.359c-0.269 0-0.547-0.039-0.84-0.121v0.039c0.293 0.11 0.653 0.227 1.078 0.364 0.454 0.292 0.856 1.039 1.2 2.238h0.082c0.133-0.028 0.238-0.067 0.32-0.121l-0.32-0.239c-0.082-0.132-0.188-0.375-0.321-0.718-0.105-0.321-0.214-0.563-0.32-0.723-0.027-0.027-0.242-0.184-0.641-0.48-0.105-0.079-0.187-0.161-0.238-0.239zm5.078 1.961-0.078-0.359c-0.082-0.11-0.347-0.297-0.801-0.563-0.8-0.613-1.375-1.027-1.722-1.238-0.133 0-0.278 0.012-0.438 0.039 0.188 0.16 0.414 0.348 0.68 0.559 0.558 0.32 0.934 0.629 1.121 0.922 0.051 0.05 0.133 0.214 0.238 0.48 0.106 0.238 0.199 0.387 0.282 0.438l0.398 0.043 0.32-0.321zm0-2.281c0.133 0.16 0.293 0.32 0.481 0.48 0.215 0.239 0.492 0.614 0.84 1.122 0.32 0.48 0.519 0.757 0.601 0.839v0.039c0.238 0 0.453-0.066 0.637-0.199l-0.238-0.359c-0.188 0.051-0.36-0.055-0.52-0.32-0.105-0.321-0.199-0.536-0.281-0.641-0.16-0.188-0.387-0.402-0.68-0.641-0.187-0.133-0.332-0.238-0.441-0.32h-0.399zm7.442 2.641-0.282-0.039-0.281-0.161c0.055 0.106 0.067 0.227 0.043 0.36l0.277 0.078 0.122-0.117 0.121-0.121zm-0.602-2.879c-0.187 0.05-0.348 0.078-0.48 0.078l0.121 0.121c0.238 0.211 1.105 0.758 2.601 1.641l1.078 0.558 0.36 0.199 0.16-0.277-0.238 0.078c-0.082-0.398-0.336-0.762-0.762-1.078-0.215-0.137-0.598-0.336-1.16-0.602l-0.84-0.359c-0.371-0.105-0.652-0.227-0.84-0.359zm-2.641 0.32h-0.679l2.359 1.559c0.082 0.078 0.27 0.187 0.563 0.32-0.215-0.293-0.641-0.656-1.282-1.082-0.187-0.106-0.468-0.344-0.839-0.719-0.055-0.027-0.094-0.055-0.122-0.078zm-4.32 1.398 0.16 0.719 0.16-0.359-0.32-0.36z" inkscape:connector-curvature="0"/>
      <path id="path18" style="fill-rule:evenodd;fill:#908766" d="m35.723 22.982c0.64-0.402 0.972-0.602 1-0.602h0.363c0.105 0.024 0.203 0.043 0.297 0.063-0.453-0.262-0.981-0.535-1.578-0.82v0.039c0.023 0.078 0.011 0.214-0.043 0.398-0.106 0.215-0.172 0.359-0.2 0.441-0.078 0.375-0.214 0.602-0.398 0.68 0.027 0.027 0.051 0.039 0.078 0.039l0.242-0.078 0.239-0.16zm-14.918 1.398c-0.16 0-0.336-0.011-0.52-0.039 0.051 0.078 0.133 0.16 0.238 0.239 0.399 0.296 0.614 0.453 0.641 0.48 0.106 0.16 0.215 0.402 0.32 0.723 0.133 0.343 0.239 0.586 0.321 0.718l0.32 0.239c0.211-0.133 0.32-0.371 0.32-0.719 0-0.266-0.136-0.535-0.402-0.801l-0.039-0.039c-0.242-0.266-0.375-0.492-0.399-0.68v-0.039l-0.203-0.121h-0.039c-0.16 0.028-0.281 0.039-0.359 0.039h-0.199zm3.277-0.199c-0.023-0.027-0.039-0.055-0.039-0.078l-0.238 0.039v-0.039c-0.215 0.023-0.403 0.039-0.563 0.039h-0.48c0.347 0.211 0.922 0.625 1.722 1.238 0.454 0.266 0.719 0.453 0.801 0.563l0.078 0.359 0.039-0.082-0.16-0.719-0.117-0.48c-0.586-0.453-0.934-0.734-1.043-0.84zm3.203-0.039-0.16-0.121h-0.441c-0.239-0.027-0.547-0.027-0.922 0 0.109 0.082 0.254 0.187 0.441 0.32 0.293 0.239 0.52 0.453 0.68 0.641 0.082 0.105 0.176 0.32 0.281 0.641 0.16 0.265 0.332 0.371 0.52 0.32l0.238 0.359c0.137-0.082 0.281-0.199 0.441-0.359-0.398-0.27-0.691-0.496-0.879-0.684l-0.039-0.039c-0.054-0.051-0.109-0.117-0.16-0.199-0.187-0.238-0.187-0.535 0-0.879zm3.438-0.082h-0.078c-0.321 0.027-0.684 0.043-1.083 0.043 0.028 0.023 0.067 0.051 0.122 0.078 0.371 0.375 0.652 0.613 0.839 0.719 0.641 0.426 1.067 0.789 1.282 1.082l0.437 0.48 0.281 0.161 0.282 0.039c0.05-0.082 0.105-0.149 0.156-0.2 0.027-0.027 0.043-0.054 0.043-0.082 0.16-0.293 0.16-0.531 0-0.718-0.242-0.321-0.629-0.641-1.16-0.961-0.481-0.266-0.852-0.481-1.121-0.641zm2.039-0.359-0.559 0.082c0.188 0.132 0.469 0.25 0.84 0.359l0.84 0.359c0.562 0.266 0.949 0.465 1.16 0.602 0.43 0.316 0.68 0.68 0.762 1.078l0.238-0.078 0.441-0.723c-0.187-0.211-0.464-0.425-0.839-0.64-0.426-0.239-0.735-0.414-0.922-0.52l-0.598-0.359-0.281-0.121 0.601-0.117 0.598-0.282h-0.199c-0.106 0.028-0.215 0.055-0.321 0.078v-0.039c-0.187 0.055-0.347 0.082-0.48 0.082v0.039l-1.281 0.2z" inkscape:connector-curvature="0"/>
      <path id="path20" style="fill-rule:evenodd;fill:#c7bb8d" d="m18.605 13.341-0.32-0.441-1.281 0.519c-0.215 0.11-0.465 0.188-0.762 0.243l-0.117-0.243-1.16 0.364-0.203 0.078c-1.41 0.082-2.239 0.133-2.477 0.16-0.402 0.082-0.695 0.133-0.883 0.16-0.343 0.055-0.625 0.055-0.84 0 0.293-0.215 0.668-0.375 1.122-0.48 0.027 0 0.398-0.039 1.121-0.121 0.293 0 0.519-0.012 0.679-0.04-0.586-0.105-1.015-0.16-1.281-0.16-0.906-0.078-1.707-0.05-2.398 0.082l-2.082-2.64 0.039-0.082c0.535-0.266 1.187-0.371 1.961-0.317-0.133-0.082-0.2-0.175-0.2-0.281 0.348 0.027 0.829 0.066 1.442 0.117l2.199-0.238c0.293 0 0.508 0.016 0.641 0.039l-0.321-0.359c-0.265-0.215-0.601-0.453-1-0.719-0.48-0.293-0.839-0.52-1.082-0.68l-0.16-0.121h-0.039l-0.199-0.078c-0.586-0.32-0.945-0.496-1.082-0.523h-0.477l0.078 0.16c0.106 0.242 0.293 0.468 0.559 0.683 0.402 0.317 0.629 0.504 0.68 0.559l0.601 0.68-0.84-0.161c-0.347-0.054-0.839 0.039-1.48 0.282-0.32 0.105-0.801 0.386-1.438 0.84h-0.043c-0.531-0.641-1.039-1.215-1.519-1.719l-0.039-0.043-0.84 0.359h0.039c0.508 0.348 0.785 0.547 0.84 0.602 0.133 0.133 0.266 0.32 0.402 0.558l1.078 0.879 0.559 0.641 0.082 1.121-0.48-0.281c0.187 0.297 0.425 0.547 0.718 0.761l0.36 0.239-0.598 0.242-1 0.961-0.039 0.039 0.117 0.16h0.043c0.106-0.027 0.492-0.172 1.16-0.441 0.477-0.188 0.864-0.293 1.16-0.321h0.157l0.48 0.282c1.176 0.746 1.973 1.371 2.403 1.878l0.757-0.16-0.879-0.597c-0.398-0.243-0.695-0.414-0.878-0.524-0.348-0.211-0.614-0.41-0.801-0.597l-0.199-0.2 0.48 0.078c0.293 0.055 0.73 0.04 1.32-0.039 0.637-0.082 1.078-0.121 1.317-0.121l1.363 0.082 0.078 0.161c0.082 0.132 0.199 0.453 0.359 0.957 0.133 0.375 0.282 0.656 0.442 0.839l0.16 0.204c-0.215-0.348-0.226-0.641-0.039-0.883 0.133 0 0.305 0.136 0.52 0.402 0.105 0.106 0.437 0.574 1 1.398 0.32 0.481 0.625 0.84 0.917 1.083l-1.957-1.52c0.372 0.398 0.758 0.746 1.157 1.039l1.082 0.801-4.16-0.082c-0.321 0-0.547 0.066-0.68 0.199 0.293 0.16 0.652 0.242 1.078 0.242l0.32 0.321 0.442 0.32-0.039 0.078 0.8 0.641c-0.347-0.375-0.617-0.629-0.8-0.762-0.188-0.133-0.375-0.332-0.563-0.598l1.082-0.043c0.399 0 0.852 0.055 1.36 0.16 0.293 0.055 0.718 0.149 1.281 0.282l0.879 0.039 0.718 0.64-0.359-0.679c0.426-0.028 1.055-0.067 1.879-0.121l0.281-0.118c0.055 0 0.082 0.039 0.082 0.118h0.477l1.402-0.161 0.961-0.277c0.344-0.133 0.637-0.281 0.879-0.441 0.078-0.055 0.16-0.106 0.238-0.161l0.16-0.078 1.122-0.281 0.718-0.32c0.082-0.133 0.121-0.254 0.121-0.36v-0.039c-0.293 0-0.519 0.012-0.679 0.039-0.321 0.028-0.641 0.106-0.961 0.239l-0.801-1.039c-0.211-0.399-0.398-0.653-0.559-0.758h-0.082c-0.05 0.183 0.016 0.453 0.204 0.797 0.105 0.16 0.25 0.375 0.437 0.64l0.242 0.52-1.082 0.32-1.199 0.16-1.32-1.437-0.961-0.84-0.68 0.078 0.48 1.039-0.878-1.078h-0.161c0.372 0.613 0.813 1.027 1.321 1.238l1.359 1.121-2.398 0.321c-0.535 0.054-0.95 0.078-1.243 0.078-0.558-0.371-0.984-0.664-1.281-0.879-0.426-0.348-0.758-0.84-1-1.481-0.133-0.398-0.32-1.027-0.558-1.878l-0.2-0.442 0.399-0.117 0.039-0.082c0.137-0.188 0.348-0.254 0.641-0.199 0.535-0.242 0.867-0.403 1.003-0.481zm-8.363 3.399-1.199 0.281-0.039 0.082c0.613-0.137 0.973-0.188 1.078-0.16 0 0.027-0.012 0.039-0.039 0.039-0.133 0.16-0.332 0.32-0.598 0.48h-0.043l0.121 0.078 0.239-0.078 0.281 0.039h0.039l0.84-0.281h0.082l1.558-0.64c-0.933 0.054-1.624 0.093-2.078 0.121l-0.242 0.039zm4.801-3.239 1.039-0.121-0.957-1.64c-0.563-0.348-0.84-0.625-0.84-0.84l0.238-0.078-0.039-0.039c0.559-0.082 1.055-0.227 1.481-0.442-0.137-0.133-0.215-0.238-0.242-0.32-0.961 0.375-1.735 0.629-2.321 0.762l-0.32 0.117 0.441 0.32c0.348 0.375 0.747 1.133 1.2 2.281h0.32zm9.922 10.559c-0.293-0.051-0.735-0.078-1.32-0.078l0.16 0.121v0.039l0.238-0.039c0.16 0 0.348-0.016 0.562-0.043h0.36zm5.957-0.359-0.52 0.16 0.243 0.199h0.078c0.054 0 0.109-0.012 0.16-0.039h0.082c0.055-0.004 0.133-0.02 0.238-0.039h0.082l-0.363-0.281zm2.281-0.68-0.199 0.082-0.602 0.117 0.36 0.442v0.039l1.281-0.2v-0.039l-0.719-0.441h-0.121zm-2.48-1.68-0.078-0.082-0.602 0.043c0.801 0.481 1.469 1 2 1.559l2-0.199-0.641-0.243-0.078-0.039-0.562 0.282-0.559-0.36 0.199 0.321c-0.851-0.454-1.453-0.84-1.797-1.161l0.118-0.121zm-1.078-0.879-0.161 0.039-1-0.8c-0.586-0.293-0.906-0.598-0.961-0.918l0.082-0.082-0.32-0.399-0.723 0.16c0.215 0.481 0.586 1.039 1.122 1.68l0.519 0.481h0.199l-1.359 0.039c-1.121 0.132-1.945 0.199-2.481 0.199-1.546 0-2.546 0.054-3 0.16 0.083 0.348 0.95 0.453 2.602 0.32l1.918 0.078 1.32-0.359c0.188-0.051 0.563-0.172 1.121-0.359l-0.121-0.078c-0.238-0.243-0.371-0.481-0.398-0.723 0.293 0.055 0.652 0.269 1.078 0.64l0.363 0.282 1.239 0.16 0.519-0.121c0.106-0.16 0.094-0.305-0.039-0.442-0.109-0.16-0.348-0.199-0.719-0.117-0.429 0.133-0.707 0.211-0.84 0.238l0.04-0.078zm-4.641-0.8c-0.293-0.106-0.481-0.188-0.559-0.243l0.317-0.078v-0.039l-0.438 0.117 1.078 0.84-0.398-0.597zm-1.801 3.757 0.922 0.321 0.957 0.121c0.535 0.027 1.348-0.028 2.441-0.16 0.188 0 0.602 0.054 1.239 0.16 0.535 0.105 0.961 0.133 1.281 0.082l0.883-0.242c0.078-0.078 0.172-0.121 0.277-0.121l0.559-0.2-0.117-0.078-0.321 0.039h-0.039l-0.84 0.16c-0.136 0.028-0.507 0.039-1.121 0.039l0.961-0.32c-0.293-0.211-1.055-0.707-2.281-1.48l-0.359 0.043-0.083 0.039 2.161 1.519h-0.039c-1.602 0.133-2.801 0.199-3.602 0.199l-0.637-0.238c-0.109-0.082-0.269-0.109-0.48-0.082-0.27 0.028-0.453 0.039-0.563 0.039l-1.199 0.16zm-0.039-0.679c-0.508-0.293-0.828-0.438-0.961-0.438l1 1.117 0.762-0.117-0.16-0.121h-0.243c-0.132-0.055-0.265-0.199-0.398-0.441zm-1.16 1.48-0.442-0.277h-0.32c-0.691 0.027-1.199 0.012-1.519-0.043l0.039 0.203 1.043 0.277h0.199c0.078 0 0.199-0.011 0.359-0.039h0.039c0.028 0 0.067-0.015 0.121-0.039h0.039l0.442-0.043v-0.039zm-4.442-3.359-1.48 0.039 0.16 0.043-1.359 0.758 0.441 0.48 0.238 0.039 1.161-0.519c1.015-0.321 1.695-0.465 2.039-0.442l-0.52-0.238-0.238 0.082-0.442-0.242zm1.442-1.399c-0.535-0.136-0.934-0.203-1.199-0.203 0.425-0.051 1.078-0.117 1.957-0.199 1.336-0.266 2.347-0.305 3.043-0.117l2.918-0.641c-1.868 0.613-3.25 0.985-4.161 1.117l-1.398 0.243c-0.293 0-0.68-0.067-1.16-0.2zm1.84 4.039c-1.254-0.828-2.332-1.441-3.239-1.839 1.09 0.691 1.774 1.359 2.04 2l1.199-0.161zm4.121-9.761c-0.188 0.187-0.414 0.347-0.68 0.48-0.215-0.265-0.59-0.558-1.121-0.879-0.508-0.347-0.84-0.508-1-0.48 0.078 0.293 0.293 0.574 0.641 0.84 0.453 0.375 0.734 0.625 0.84 0.761-1.094 0.239-1.817 0.414-2.161 0.52l-0.562 0.121-0.199-0.32c-0.211-0.723-0.399-1.254-0.559-1.602l-0.32-0.48c0.32 0.613 0.535 1.16 0.64 1.64l0.239 0.84 0.16 0.399 0.121-0.04c0.668-0.078 1.613-0.359 2.84-0.839l1.84-0.399c-0.133-0.187-0.375-0.375-0.719-0.562zm-5.641-5.321c-0.375-0.504-0.762-0.918-1.16-1.238l-0.039-0.039-0.52 0.199 0.239 0.239c0.187 0.187 0.492 0.468 0.918 0.843 0.269 0.211 0.453 0.453 0.562 0.719l-0.84-0.359 1.438 1.238c-0.238-0.266-0.438-0.801-0.598-1.602zm-3 1.364 0.36 0.199c0.32 0.266 0.574 0.453 0.761 0.558 0.957 0.563 1.586 1.016 1.879 1.36-0.453-0.746-0.812-1.238-1.082-1.481-0.078-0.105-0.426-0.382-1.039-0.839l0.602-0.481-0.602 0.281 0.32-0.078-1.199 0.481zm3.199 2.398 0.321 0.52c0.586-0.293 0.961-0.586 1.121-0.879-0.375-0.106-0.856 0.011-1.442 0.359zm0.36 3 0.082 0.16c-1.254 0.188-2.082 0.332-2.481 0.442 0.504 0.132 1.145 0.199 1.918 0.199l-0.277-0.16c0.266-0.16 0.625-0.242 1.078-0.242l-0.199-0.278-0.121-0.121zm-3.719-5.519 0.801-0.2-2.36-1.519 1.317 1.558 0.242 0.161zm-1.121 9.199-0.078-0.121c-0.375-0.879-0.641-1.414-0.801-1.598-0.16-0.215-0.402-0.453-0.719-0.723l-0.761 0.161c0.265 0.32 0.453 0.589 0.558 0.8 0.11 0.188 0.281 0.387 0.52 0.602 0.402 0.32 0.601 0.492 0.601 0.519l0.321 0.36h0.359zm-8.719-7.641-0.679 0.199c0.16 0.188 0.464 0.282 0.917 0.282l-0.238-0.481z" inkscape:connector-curvature="0"/>
      <path id="path22" style="fill-rule:evenodd;fill:#aca178" d="m9.004 17.103-0.039 0.078 0.437 0.281h0.043c0.266-0.16 0.465-0.32 0.598-0.48 0.027 0 0.039-0.016 0.039-0.039-0.105-0.028-0.465 0.023-1.078 0.16zm23.199 6.68 0.559-0.082v-0.039l-0.36-0.442-0.039-0.039 0.84-0.16h0.121l0.637-0.121 0.32-0.117-0.238-0.121-2 0.199c-0.535-0.559-1.199-1.078-2-1.559l0.602-0.043h0.117l0.242-0.199-0.32-0.078-1.239-0.16-0.363-0.282c-0.426-0.371-0.785-0.585-1.078-0.64 0.027 0.242 0.16 0.48 0.398 0.723l0.121 0.078c-0.558 0.187-0.933 0.308-1.121 0.359l-1.32 0.359c-0.477 0.055-0.773 0.067-0.879 0.043 0.641 0.321 1.426 0.438 2.359 0.36l0.083-0.039 0.359-0.043 0.801-0.239 0.398-0.082 0.121-0.039 0.321 0.282c0.636 0.64 1.144 1.066 1.515 1.281l-0.879 0.277-0.961 0.32c0.618 0 0.989-0.011 1.121-0.039l0.844-0.16h0.039l0.321-0.039 0.117 0.078 0.441 0.403zm-12.84 0.039 0.36 0.078c0.32 0.055 0.828 0.066 1.519 0.043h0.32l2.083 0.039c0.585 0 1.027 0.027 1.32 0.078l-0.84-0.32-0.922-0.321h-0.039c-0.16-0.05-0.402-0.066-0.719-0.039-0.32 0.028-0.562 0.039-0.722 0.039l-2.078 0.243-0.36 0.039 0.078 0.121zm-3.199-7.199 0.199 0.32 0.242 0.16 1.957 1.52c-0.292-0.243-0.597-0.602-0.917-1.083-0.563-0.824-0.895-1.292-1-1.398-0.215-0.266-0.387-0.402-0.52-0.402-0.187 0.242-0.176 0.535 0.039 0.883zm-0.082 4.277c-0.531-0.16-1.172-0.145-1.918 0.043l0.719 0.758 1.359-0.758-0.16-0.043zm2.922-1.438c0.48 0.133 0.867 0.2 1.16 0.2l1.398-0.243c0.907-0.132 2.293-0.504 4.161-1.117l-2.918 0.641c-0.696-0.188-1.707-0.149-3.043 0.117-0.879 0.082-1.532 0.148-1.957 0.199 0.265 0 0.664 0.067 1.199 0.203zm5.398-4.281 1.36-0.601c0-0.133-0.024-0.227-0.078-0.278l-1.84 0.399c-1.227 0.48-2.172 0.761-2.84 0.839l-0.121 0.04-0.16-0.399-0.239-0.84c-0.105-0.48-0.32-1.027-0.64-1.64l-0.52-0.801c-0.293-0.348-0.922-0.797-1.879-1.36-0.187-0.105-0.441-0.292-0.761-0.558l-0.36-0.199-0.16-0.121-0.242-0.161-0.36-0.16c-0.078 0.082-0.078 0.239 0 0.481l-1.199 0.32h-0.039l-0.519-0.082c-0.133-0.023-0.348-0.039-0.641-0.039l-2.199 0.238c-0.613-0.051-1.094-0.09-1.442-0.117 0 0.106 0.067 0.199 0.2 0.281 0.187 0.157 0.535 0.293 1.039 0.399 0.402 0.105 0.722 0.16 0.961 0.16 0.402 0.027 0.855 0 1.359-0.082l0.32-0.117c0.586-0.133 1.36-0.387 2.321-0.762 0.027 0.082 0.105 0.187 0.242 0.32l2.199 2.442c-0.48 0.078-0.773 0.132-0.879 0.16l-1.203 0.437-0.879 0.121h-0.48l-1.239 0.039c-0.16 0.028-0.386 0.04-0.679 0.04-0.723 0.082-1.094 0.121-1.121 0.121-0.454 0.105-0.829 0.265-1.122 0.48 0.215 0.055 0.497 0.055 0.84 0 0.188-0.027 0.481-0.078 0.883-0.16 0.238-0.027 1.067-0.078 2.477-0.16l0.203-0.078 1.16-0.364 2.078-0.64 0.082 0.121 0.32 0.441c0.211 0.293 0.372 0.598 0.477 0.918l0.043 0.043h0.039l0.719 0.879 0.121 0.121 0.199 0.278c-0.453 0-0.812 0.082-1.078 0.242l0.277 0.16c0.215 0.051 0.575 0.094 1.082 0.121v0.039h0.2l0.878 1.078-0.48-1.039 0.68-0.078 0.961-0.281c0.187-0.188 0.746-0.403 1.679-0.641zm-6.797-7.84-0.8 0.282 1.558 1.078h0.039l0.082 0.082 0.84 0.359c-0.105-0.266-0.293-0.508-0.562-0.719-0.426-0.375-0.731-0.656-0.918-0.843l-0.239-0.239zm-11.16 3.039-0.402-0.277c0.027 0.266 0.121 0.637 0.281 1.117l0.238 0.481 0.043 0.082c0.211 0.343 0.571 0.664 1.079 0.957l0.48 0.281-0.082-1.121-0.559-0.641-1.078-0.879z" inkscape:connector-curvature="0"/>
      <path id="path24" style="fill-rule:evenodd;fill:#e1d4a3" d="m15.684 1.201c0.007 0.246 0.062 0.492 0.16 0.742l0.801 2.199c0.027 0.051 0.21 0.398 0.558 1.039 0.082 0.16 0.149 0.309 0.199 0.442l0.481 0.078c0.082 0 0.187-0.067 0.32-0.2 0.293-0.531 0.414-1.011 0.359-1.441 0.028-0.078 0.028-0.145 0-0.199-0.078-0.586-0.359-1.078-0.839-1.481l-0.078-0.48c-0.133-0.613-0.602-0.918-1.403-0.918-0.238-0.055-0.387 0.066-0.437 0.359l-0.082 0.082c-0.02-0.066-0.035-0.14-0.039-0.222zm-0.52 4.98c0.106-0.055 0.172-0.133 0.199-0.238 0.082-0.133 0.121-0.27 0.121-0.403 0.161-0.16 0.211-0.32 0.161-0.48-0.375-1.465-1.122-2.492-2.243-3.078-0.105-0.027-0.211 0-0.32 0.078 0.055 0.082 0.109 0.176 0.16 0.281 0.215 0.375 0.403 0.653 0.563 0.84 0.183 0.242 0.359 0.586 0.519 1.039 0.16 0.617 0.281 1 0.36 1.16 0.132 0.332 0.293 0.598 0.48 0.801zm-2.879 0.559c0.184 0.109 0.371 0.093 0.559-0.039 0.371-0.239 0.574-0.641 0.601-1.2 0-0.48-0.093-0.878-0.281-1.199-0.535-0.988-1.414-1.668-2.641-2.043-0.05-0.398 0.082-0.625 0.399-0.679h-0.039c-0.321 0.054-0.438 0.281-0.36 0.679 0.028 0.11 0.161 0.535 0.399 1.281 0.082 0.27 0.441 1.149 1.082 2.641l0.281 0.559zm-4.082-4.438c0.027 0.106 0.055 0.227 0.082 0.36 0.133 0.48 0.371 1.078 0.719 1.8 0.215 0.399 0.586 0.93 1.121 1.598 0.027 0.027 0.051 0.055 0.078 0.082 0.348-0.426 0.309-1.055-0.121-1.883l-0.477-0.84c-0.187-0.773-0.562-1.171-1.121-1.199-0.132 0-0.226 0.028-0.281 0.082zm-1.281 4.117 0.48 0.082c0.11 0 0.215-0.066 0.321-0.199 0.082-0.133 0.093-0.265 0.039-0.402-0.453-1.387-1.117-2.293-2-2.719-0.184-0.078-0.332-0.012-0.438 0.199-0.054-0.05-0.082-0.132-0.082-0.238-0.023 0.133 0.043 0.277 0.203 0.438l0.317 0.32c0.187 0.269 0.429 0.773 0.722 1.519 0.161 0.403 0.305 0.735 0.438 1zm1.203-4.359c-0.027-0.293 0.105-0.508 0.398-0.641-0.293 0.11-0.441 0.27-0.441 0.481 0 0.027 0.016 0.082 0.043 0.16zm-2.961 6.402c-0.082-0.062-0.148-0.207-0.199-0.441 0.133 0.027 0.25-0.027 0.359-0.16 0.106-0.106 0.149-0.238 0.121-0.399-0.457-1.789-1.269-2.894-2.441-3.32-0.027-0.027-0.094-0.016-0.199 0.039 0.023-0.105 0.066-0.226 0.117-0.359-0.078 0.16-0.133 0.32-0.16 0.48-0.024 0.188 0.043 0.36 0.203 0.52l0.437 0.441c0.215 0.293 0.481 0.785 0.801 1.481 0.375 0.425 0.602 0.746 0.68 0.957 0.055 0.187 0.082 0.336 0.082 0.441 0 0.027 0.012 0.051 0.039 0.082 0.023 0.102 0.078 0.18 0.16 0.238zm-2.16 0.641-0.082-0.16c0.109-0.11 0.16-0.203 0.16-0.281v-0.442c0.188-0.133 0.281-0.277 0.281-0.437-0.027-0.746-0.375-1.387-1.039-1.922-0.828-0.508-1.414-0.906-1.762-1.199-0.078-0.082-0.16-0.094-0.238-0.039 0.16-0.161 0.332-0.243 0.52-0.243-0.399-0.05-0.668 0.188-0.801 0.723-0.133 0.504 0.039 0.918 0.519 1.238 0.614 0.426 1.094 0.828 1.442 1.199 0.16 0.161 0.348 0.454 0.558 0.883 0.215 0.317 0.36 0.543 0.442 0.68zm2.719 4.117-0.68-0.64c0.187 0.214 0.453 0.468 0.801 0.761l-0.121-0.121zm0.839-1.519c-0.453 0-0.757-0.094-0.917-0.282l0.679-0.199c-0.16-0.48-0.254-0.851-0.281-1.117l0.402 0.277c-0.136-0.238-0.269-0.425-0.402-0.558-0.055-0.055-0.332-0.254-0.84-0.602l-0.039 0.039c-0.32 0.453-0.453 0.778-0.402 0.961 0.027 0.133 0.16 0.281 0.402 0.442 0.106 0.078 0.266 0.187 0.481 0.32-0.266 0.426-0.348 0.773-0.243 1.039 0.055 0.082 0.27 0.281 0.641 0.602 0.402 0.398 0.668 0.625 0.801 0.679 0.215 0.078 0.519 0.172 0.918 0.278-0.051 0.136-0.172 0.347-0.36 0.64-0.183 0.293-0.304 0.508-0.359 0.641 0.027 0.027 0.066 0.054 0.121 0.082l1-0.961 0.598-0.242-0.36-0.239c-0.293-0.214-0.531-0.464-0.718-0.761-0.508-0.293-0.868-0.614-1.079-0.957l-0.043-0.082zm0.723 3.441c0.024 0.051 0.051 0.106 0.078 0.16l0.199-0.082c0.11-0.051 0.387-0.105 0.84-0.16 0.028 0 0.16-0.027 0.403-0.078 0.211-0.055 0.332-0.067 0.359-0.039 0.106 0.051 0.133 0.144 0.078 0.277-0.051 0.16-0.066 0.266-0.039 0.32 0.082 0.215 0.336 0.375 0.762 0.481 0.453 0.105 0.719 0.227 0.797 0.359-0.133 0.16-0.305 0.282-0.52 0.36l0.242-0.039c0.454-0.028 1.145-0.067 2.078-0.121l-1.558 0.64c0.586-0.078 1.238 0.106 1.961 0.563 0.105 0.05 0.305 0.144 0.597 0.277 0.266 0.133 0.426 0.266 0.481 0.402 0.027 0.106 0 0.266-0.078 0.481-0.082 0.183-0.067 0.332 0.039 0.437 0.078 0.082 0.238 0.094 0.48 0.039 0.293-0.023 0.481-0.023 0.559 0l0.359 0.204-0.32-0.321c-0.426 0-0.785-0.082-1.078-0.242 0.133-0.133 0.359-0.199 0.68-0.199l4.16 0.082-1.082-0.801c-0.399-0.293-0.785-0.641-1.157-1.039l-0.242-0.16-0.199-0.32-0.16-0.204c-0.16-0.183-0.309-0.464-0.442-0.839-0.16-0.504-0.277-0.825-0.359-0.957l-0.078-0.161-1.363-0.082c-0.239 0-0.68 0.039-1.317 0.121-0.59 0.079-1.027 0.094-1.32 0.039l-0.48-0.078 0.199 0.2c0.187 0.187 0.453 0.386 0.801 0.597 0.183 0.11 0.48 0.281 0.878 0.524l0.879 0.597-0.757 0.16c-0.43-0.503-1.227-1.132-2.403-1.878l-0.48-0.282h-0.157c-0.296 0.028-0.683 0.133-1.16 0.321-0.668 0.265-1.054 0.414-1.16 0.441zm6.719 5.641c-0.293-0.321-0.602-0.614-0.922-0.883 0.828 0.773 1.707 1.695 2.641 2.762l-0.399-0.481-0.441-0.48-0.719-0.758c0.746-0.188 1.387-0.203 1.918-0.043l1.48-0.039c-0.773-0.426-1.039-0.813-0.8-1.16 0.109-0.161 0.363-0.227 0.761-0.2 0.215 0.028 0.454 0.079 0.719 0.161 0.641 0.05 1.016 0.093 1.121 0.121 0.481 0.16 0.559 0.41 0.242 0.757l-1.363 0.481 0.52 0.238c-0.344-0.023-1.024 0.121-2.039 0.442l-1.161 0.519 0.243 0.039 0.597-0.117 0.121-0.039c0.114-0.059 0.258-0.152 0.442-0.281 0.105-0.028 0.25 0.027 0.437 0.16 0.11 0.051 0.254 0.144 0.442 0.277 0.105 0.055 0.332 0.188 0.679 0.403 0.293 0.214 0.454 0.425 0.481 0.64v0.078l0.281 0.321 0.36-0.039 2.078-0.243c0.16 0 0.402-0.011 0.722-0.039 0.317-0.027 0.559-0.011 0.719 0.039h0.039l1.199-0.16c0.11 0 0.293-0.011 0.563-0.039 0.211-0.027 0.371 0 0.48 0.082l0.637 0.238c0.801 0 2-0.066 3.602-0.199h0.039l-2.161-1.519c-0.933 0.078-1.718-0.039-2.359-0.36 0.106 0.024 0.402 0.012 0.879-0.043l-1.918-0.078c-1.652 0.133-2.519 0.028-2.602-0.32 0.454-0.106 1.454-0.16 3-0.16 0.536 0 1.36-0.067 2.481-0.199l1.359-0.039h-0.199l-0.519-0.481c-0.536-0.641-0.907-1.199-1.122-1.68l0.723-0.16 0.32 0.399c0.372-0.188 0.637-0.465 0.797-0.84l-0.718 0.32-1.122 0.281-0.16 0.078c-0.078 0.055-0.16 0.106-0.238 0.161-0.242 0.16-0.535 0.308-0.879 0.441l-0.961 0.277-1.402 0.161h0.16c0.801 0.109 1.137 0.375 1 0.8l-2.52 0.321c-0.503-0.321-0.8-0.575-0.878-0.758 0.425-0.188 0.878-0.297 1.359-0.32l0.039-0.043c-0.824 0.054-1.453 0.093-1.879 0.121l0.359 0.679-0.718-0.64-0.879-0.039c-0.563-0.133-0.988-0.227-1.281-0.282-0.508-0.105-0.961-0.16-1.36-0.16l-1.082 0.043c0.188 0.266 0.375 0.465 0.563 0.598 0.187 0.137 0.453 0.387 0.8 0.762l-0.8-0.641c-0.11 0.293-0.36 0.492-0.762 0.602-0.481 0.05-0.824 0.105-1.039 0.16zm20.281 2-0.32 0.117-0.641 0.121 0.719 0.441c0.133 0 0.293-0.027 0.48-0.082 0.055-0.16 0.067-0.265 0.039-0.32-0.027-0.078-0.117-0.172-0.277-0.277zm-1.082 0.238-0.84 0.16 0.039 0.039 0.602-0.117 0.199-0.082zm-1-0.719 0.559 0.36 0.562-0.282 0.078 0.039-1.039-0.597c-0.16 0.16-0.215 0.32-0.16 0.48zm-1.199-1.242 0.199-0.199-0.519 0.121 0.32 0.078zm-0.242 0.199h-0.117l0.078 0.082 0.039-0.082zm-2.278-1.558 1 0.8 0.161-0.039c0.078-0.136 0.171-0.293 0.277-0.48 0.082-0.133 0.094-0.281 0.043-0.442-0.027-0.078-0.133-0.171-0.32-0.281-0.188-0.105-0.309-0.172-0.36-0.199-0.242-0.105-0.402-0.094-0.48 0.043-0.055 0.105-0.094 0.332-0.121 0.68l-0.2-0.082zm3.161 1c-0.215-0.133-0.415-0.282-0.602-0.442-0.16-0.105-0.32-0.222-0.481-0.359 0.321 0.293 0.708 0.586 1.161 0.883l-0.078-0.082zm3.519 2.48v-0.039c-0.023 0-0.051-0.016-0.082-0.039 0.031 0.027 0.055 0.055 0.082 0.078zm-0.32 0.16h0.199c0.16 0 0.293 0.012 0.402 0.039-0.16-0.054-0.363-0.066-0.601-0.039zm-4.199 0.719-0.243-0.199 0.52-0.16 0.363 0.281c0.133-0.027 0.277-0.067 0.438-0.121 0.132 0 0.293-0.028 0.48-0.078l-0.441-0.403-0.559 0.2c-0.105 0-0.199 0.043-0.281 0.121l-0.879 0.242c-0.32 0.051-0.746 0.027-1.281-0.082-0.641-0.106-1.051-0.16-1.239-0.16-1.093 0.132-1.906 0.187-2.441 0.16l-0.961-0.121 0.84 0.32c0.133 0 0.266-0.012 0.402-0.039h0.399c0.375-0.027 0.679-0.027 0.922 0h0.437c0.402 0.027 0.906 0.055 1.52 0.082h0.921c0.403 0 0.762-0.016 1.083-0.043zm-0.36-0.84 0.879-0.277c-0.375-0.215-0.879-0.641-1.519-1.281l-0.321-0.282-0.121 0.039-0.398 0.082-0.801 0.239c1.226 0.773 1.988 1.269 2.281 1.48zm-6.64 0.762-2.083-0.039 0.442 0.277h0.121c0.078 0 0.145-0.012 0.199-0.039 0.16-0.027 0.305-0.039 0.438-0.039h0.48c0.16 0 0.348-0.016 0.563-0.039l-0.16-0.121zm-9.122-13.16c0.293-0.11 0.668-0.028 1.122 0.238 0.238 0.133 0.546 0.348 0.917 0.641l-0.48 1.121c-0.293-0.403-0.52-0.696-0.68-0.883l-0.277-0.199 0.957 1.64-1.039 0.121h0.16l0.879-0.121 1.203-0.437c0.106-0.028 0.399-0.082 0.879-0.16l-2.199-2.442c-0.426 0.211-0.922 0.36-1.481 0.442l0.039 0.039zm10.481 8.84 0.398 0.597-1.078-0.84 0.438-0.117v0.039c0.8-0.187 1.269-0.398 1.402-0.64l0.359 0.519c-0.398 0.453-0.906 0.602-1.519 0.442zm-1.442 3.519h0.243l0.16 0.121-0.762 0.117-1-1.117c0.133 0 0.453 0.145 0.961 0.438-0.133-0.184-0.187-0.36-0.16-0.52 0.105-0.293 0.465-0.48 1.078-0.558 0.43-0.055 0.867 0.105 1.32 0.48 0.641 0.531 1.016 0.828 1.121 0.879l-2.961 0.16zm-3.277 1.16c0.184 0.028 0.36 0.039 0.52 0.039l-1.043-0.277-0.039-0.203-0.36-0.078 0.082 0.398c0.293 0.082 0.571 0.121 0.84 0.121zm-1.281-2.718c0.398-0.454 0.867-0.575 1.398-0.364 1.203 0.375 1.828 0.91 1.883 1.602l-1.68-0.078c-0.402-0.215-0.707-0.375-0.921-0.481-0.375-0.215-0.602-0.441-0.68-0.679zm0.879-6.442-0.719-0.879-0.402 0.68-1.317 0.437c-0.16-0.211-0.281-0.398-0.363-0.558-0.184-0.321-0.238-0.574-0.16-0.758l-0.399 0.117 0.2 0.442c0.242 0.851 0.429 1.48 0.562 1.878 0.238 0.641 0.57 1.133 1 1.481 0.293 0.215 0.719 0.508 1.277 0.879 0.293 0 0.708-0.024 1.243-0.078l2.398-0.321-1.359-1.121c-0.508-0.211-0.949-0.625-1.321-1.238h-0.039v-0.039c-0.507-0.027-0.867-0.066-1.082-0.121-0.773 0-1.414-0.067-1.918-0.199 0.399-0.11 1.227-0.254 2.481-0.442l-0.082-0.16zm-1.278-1.84c-0.136 0.082-0.468 0.239-1 0.481l0.477 0.078c0.43 0.055 0.773 0.187 1.043 0.402l-0.043-0.043c-0.105-0.316-0.266-0.625-0.477-0.918zm0.918-1.16c0.586-0.348 1.067-0.465 1.442-0.359-0.16 0.293-0.535 0.586-1.121 0.879l-0.321-0.52zm-3.199-2.398 1.199-0.481-0.32 0.078 0.602-0.277-0.602 0.477c0.613 0.457 0.961 0.734 1.039 0.843 0.27 0.239 0.629 0.731 1.082 1.481l0.52 0.797 0.32 0.48c0.16 0.348 0.348 0.883 0.559 1.602l0.199 0.32 0.562-0.121c0.344-0.106 1.067-0.281 2.161-0.52-0.106-0.132-0.387-0.386-0.84-0.761-0.348-0.266-0.563-0.547-0.641-0.84 0.16-0.024 0.492 0.133 1 0.48 0.531 0.321 0.906 0.614 1.121 0.879 0.266-0.133 0.492-0.293 0.68-0.476l-0.68-0.325c-0.187-0.132-0.387-0.359-0.601-0.679-0.293-0.371-0.493-0.614-0.602-0.719-0.344-0.348-1.16-0.852-2.437-1.52l-0.481-0.32-0.039-0.039-0.203-0.121-1.438-1.238-0.082-0.082h-0.039l-1.558-1.078 0.8-0.282 0.52-0.199c-0.109 0.023-0.227 0.066-0.363 0.117-0.614 0.242-1.024 0.375-1.239 0.403-1.121 0.132-1.972 0.265-2.558 0.398-0.242 0.082-0.469 0.133-0.68 0.16 0.477 0.133 0.774 0.371 0.879 0.719l-0.32 0.719c-0.426-0.184-0.735-0.344-0.922-0.481-0.266-0.183-0.344-0.476-0.238-0.879h-0.079c-0.375 0-0.656-0.011-0.843-0.039-0.211 0-0.383-0.027-0.52-0.082l0.16 0.121c0.243 0.16 0.602 0.387 1.082 0.68 0.399 0.266 0.735 0.508 1 0.719l0.321 0.359 0.519 0.082h0.039l1.199-0.32c-0.078-0.238-0.078-0.399 0-0.481l0.36 0.164-1.317-1.558 2.36 1.519-0.801 0.2 0.16 0.121zm6.399 6.039-0.961 0.281 0.961 0.84 1.32 1.437 1.199-0.16 1.082-0.32-0.242-0.52c-0.184-0.265-0.332-0.48-0.437-0.64-0.188-0.344-0.254-0.614-0.2-0.797-0.8 0.16-1.297 0.238-1.48 0.238-0.535 0.055-0.961-0.055-1.281-0.32l0.039-0.039zm5.8 1.64c-0.132-0.187-0.253-0.359-0.359-0.519-0.027-0.055-0.055-0.094-0.082-0.121-0.027-0.028-0.066-0.094-0.117-0.199-0.082-0.11-0.188-0.243-0.32-0.403-0.508-0.238-0.895-0.359-1.161-0.359-0.293-0.028-0.613 0-0.961 0.082 0.161 0.105 0.348 0.359 0.559 0.758l0.801 1.039c0.32-0.133 0.64-0.211 0.961-0.239 0.16-0.027 0.386-0.039 0.679-0.039zm-9.64 0.598c-0.399-0.211-0.758-0.492-1.078-0.84-0.453-0.504-0.563-0.945-0.321-1.32 1.332 0.242 2.332 0.562 3 0.961 0.161 0.105 0.493 0.32 1 0.64 0.371 0.348 0.36 0.747-0.039 1.2l-2.562-0.641zm1.961 5.441-1.199 0.161c-0.266-0.641-0.95-1.309-2.04-2 0.907 0.398 1.985 1.011 3.239 1.839zm4.918-8.921-1.36 0.601 0.243-0.078c0.078-0.027 0.265-0.066 0.558-0.121 0.293-0.082 0.481-0.199 0.559-0.359v-0.043zm-7.039-7.598c-0.161 0.027-0.36 0.078-0.598 0.16l0.039 0.039c0.398 0.32 0.785 0.734 1.16 1.242-0.16-0.722-0.359-1.203-0.601-1.441zm-2.598 6.437 0.117 0.243c0.297-0.055 0.547-0.133 0.762-0.243l1.281-0.519-0.082-0.117-2.078 0.636zm-1.402 0.082c-0.453-1.148-0.852-1.906-1.2-2.281l-0.441-0.32c-0.504 0.082-0.957 0.109-1.359 0.082-0.239 0-0.559-0.055-0.961-0.16-0.504-0.106-0.852-0.242-1.039-0.399-0.774-0.054-1.426 0.051-1.961 0.317l-0.039 0.082 2.082 2.64c0.691-0.136 1.492-0.16 2.398-0.082 0.266 0 0.695 0.055 1.281 0.16l1.239-0.039zm2.562 4.481c0.211 0.344 0.106 0.531-0.32 0.558-0.426 0.055-0.75 0.016-0.961-0.121l-0.84-0.679c-0.187-0.106-0.375-0.321-0.559-0.637-0.269-0.508-0.414-0.777-0.441-0.801 0-0.027-0.148-0.176-0.441-0.441-0.211-0.215-0.321-0.387-0.321-0.52 0.028-0.32 0.321-0.48 0.883-0.48 0.504 0.054 0.863 0.32 1.078 0.801 0.082 0.425 0.176 0.746 0.282 0.961 0.265 0.371 0.492 0.625 0.679 0.757 0.055 0.055 0.227 0.149 0.52 0.282 0.238 0.105 0.386 0.214 0.441 0.32zm-2.242 0.879h-0.359l-0.321-0.36c0-0.027-0.199-0.199-0.601-0.519-0.239-0.215-0.41-0.414-0.52-0.602-0.105-0.211-0.293-0.48-0.558-0.8l0.761-0.161c0.317 0.27 0.559 0.508 0.719 0.723 0.16 0.184 0.426 0.719 0.801 1.598l0.078 0.121zm-5.598-11.281c-0.375 0.054-0.894 0.203-1.562 0.441-0.692 0.348-1.305 0.641-1.84 0.883 0.48 0.504 0.988 1.078 1.519 1.719h0.043c0.637-0.454 1.118-0.735 1.438-0.84 0.641-0.243 1.133-0.336 1.48-0.282l0.84 0.161-0.601-0.68c-0.051-0.055-0.278-0.242-0.68-0.563-0.266-0.211-0.453-0.437-0.559-0.679l-0.078-0.16zm-2.16 1.203c0.266-0.16 0.531-0.282 0.797-0.36 0.242-0.082 0.48-0.082 0.723 0 0.05 0.024 0.238 0.133 0.558 0.317l0.282 0.32c-0.106 0.055-0.321 0.109-0.641 0.16-0.242 0.028-0.453 0.106-0.641 0.242-0.347 0.399-0.613 0.614-0.801 0.641-0.105 0.023-0.277-0.055-0.519-0.242-0.266-0.188-0.387-0.332-0.359-0.442 0-0.211 0.199-0.425 0.601-0.636zm3.438 3.797c-0.504-0.293-0.774-0.454-0.801-0.477-0.293-0.27-0.399-0.551-0.317-0.844 0.266-0.023 0.598 0.016 1 0.121 0.504 0.133 0.84 0.2 1 0.2 0.372 0 0.653 0.093 0.84 0.281 0.133 0.16 0.293 0.453 0.477 0.879l0.683 0.562c-0.828 0.051-1.429 0.039-1.8-0.043-0.16-0.051-0.348-0.156-0.563-0.316-0.238-0.188-0.414-0.309-0.519-0.363zm1.922-5.161v0.043c0.183 0.211 0.425 0.305 0.718 0.278-0.187 0-0.359-0.039-0.519-0.117-0.082-0.055-0.149-0.122-0.199-0.204z" inkscape:connector-curvature="0"/>
      <path id="path26" style="fill-rule:evenodd;fill:#fbf1ca" d="m4.883 12.462v-0.043l-0.078-0.558c0-0.348-0.043-0.613-0.121-0.801-0.028-0.105-0.133-0.293-0.321-0.559-0.16-0.293-0.199-0.519-0.121-0.679 0-0.055 0.16-0.199 0.481-0.442l-0.239 0.082c-0.375 0.106-0.839 0.106-1.402 0v0.161c0 0.292 0.16 0.679 0.48 1.156l1.122 1.441c0.027 0.055 0.066 0.094 0.121 0.121l0.078 0.121zm1.762 1.918 0.117-0.359c0.027-0.16-0.106-0.32-0.399-0.481-0.347-0.16-0.558-0.265-0.64-0.32l0.121 0.121 0.801 1.039zm2.359 2.723 0.039-0.082c0.133-0.293 0.16-0.547 0.082-0.762-0.055-0.133-0.227-0.332-0.52-0.597 0.024-0.188 0.012-0.293-0.043-0.321-0.105-0.027-0.332 0.039-0.679 0.199l-0.321 0.083c0.161 0.238 0.321 0.453 0.481 0.636l0.082 0.121c0.105 0.133 0.211 0.254 0.32 0.36l0.52 0.441 0.039-0.078zm1.078 0.398h-0.039l-0.281-0.039-0.239 0.078 0.239 0.122c0.242 0.16 0.48 0.304 0.722 0.441l1.719 1.078 0.879 0.719c0.32 0.269 0.629 0.562 0.922 0.883 0.055-0.27 0.027-0.508-0.082-0.723-0.078-0.184-0.266-0.387-0.559-0.598-0.984-0.613-1.734-1.082-2.238-1.402-0.563-0.344-0.906-0.531-1.043-0.559zm6.32 4.641-0.679 0.52 0.839 0.238c0.293 0.082 0.653 0.269 1.083 0.562 0.21 0.161 0.414 0.278 0.597 0.36 0.16 0.105 0.309 0.187 0.442 0.238 0.105 0.027 0.214 0.055 0.32 0.082l0.441 0.117v-0.039l-0.082-0.398-0.078-0.121-0.281-0.321c-0.641-0.32-1.055-0.547-1.242-0.679-0.184-0.161-0.332-0.282-0.438-0.36-0.215-0.133-0.386-0.215-0.519-0.238-0.078-0.055-0.172-0.055-0.282 0l-0.121 0.039zm18.442 1.199c0.238-0.027 0.441-0.015 0.601 0.039v-0.039c-0.082-0.027-0.148-0.066-0.203-0.121-0.023 0-0.051-0.012-0.078-0.039l-0.082-0.078h-0.039c-0.105-0.082-0.227-0.176-0.359-0.281l-0.282-0.282c-0.078-0.078-0.16-0.144-0.238-0.199l-0.039-0.039c-0.055-0.027-0.082-0.054-0.082-0.082h-0.039c-0.242-0.133-0.453-0.265-0.641-0.398-0.027 0-0.051-0.016-0.078-0.039-0.055-0.028-0.109-0.067-0.16-0.121-0.242-0.133-0.453-0.254-0.641-0.36-0.187-0.133-0.347-0.242-0.48-0.32l-0.16-0.121c-0.055-0.028-0.094-0.055-0.121-0.078-0.453-0.297-0.84-0.59-1.161-0.883l-0.16-0.16c-0.183-0.16-0.347-0.305-0.48-0.438-0.078-0.082-0.133-0.16-0.16-0.242l-0.078-0.039-0.52-0.719-0.242-0.359-0.399-0.481v0.039c0 0.106-0.039 0.227-0.117 0.36-0.16 0.375-0.429 0.652-0.801 0.84l-0.082 0.082c0.055 0.32 0.375 0.625 0.961 0.918l0.2 0.082c0.027-0.348 0.066-0.575 0.121-0.68 0.078-0.137 0.238-0.148 0.48-0.043 0.051 0.027 0.172 0.094 0.36 0.199 0.187 0.11 0.293 0.203 0.32 0.281 0.051 0.161 0.039 0.309-0.043 0.442-0.106 0.187-0.199 0.344-0.277 0.48l-0.04 0.078c0.133-0.027 0.411-0.105 0.84-0.238 0.371-0.082 0.614-0.043 0.719 0.117 0.133 0.137 0.145 0.282 0.039 0.442l-0.199 0.199-0.242 0.199-0.039 0.082-0.118 0.121c0.344 0.321 0.946 0.707 1.797 1.161l-0.199-0.321c-0.055-0.16 0-0.32 0.16-0.48l1.039 0.597 0.641 0.243 0.242 0.121c0.16 0.105 0.25 0.199 0.277 0.277 0.028 0.055 0.016 0.16-0.039 0.32v0.039c0.106-0.023 0.215-0.05 0.321-0.078zm-10.082-4-0.317 0.078c0.078 0.055 0.266 0.137 0.559 0.243 0.613 0.16 1.121 0.011 1.519-0.442l-0.359-0.519c-0.133 0.242-0.602 0.453-1.402 0.64zm-2.719 0.282c-0.531 0.32-0.961 0.453-1.281 0.398 0.562 0.266 1.336 0.227 2.32-0.121l-0.637-0.238v-0.082c0-0.079-0.027-0.118-0.082-0.118l-0.281 0.118-0.039 0.043zm3.48-3.68c0.348-0.082 0.668-0.11 0.961-0.082 0.266 0 0.653 0.121 1.161 0.359l0.039 0.039-0.122-0.156-0.519-0.602c-0.055-0.054-0.094-0.105-0.121-0.16-0.024-0.027-0.039-0.054-0.039-0.082-0.055-0.051-0.106-0.117-0.16-0.199-0.078-0.051-0.145-0.117-0.2-0.199-0.027-0.028-0.039-0.055-0.039-0.078-0.242-0.27-0.453-0.524-0.64-0.762-0.321-0.375-0.602-0.68-0.84-0.918-0.16-0.137-0.293-0.254-0.399-0.363v-0.039c-0.027 0-0.054-0.012-0.082-0.039-0.027 0-0.039-0.016-0.039-0.039-0.082-0.055-0.16-0.11-0.242-0.161l-0.719-0.519c-0.027 0-0.039-0.016-0.039-0.043-0.027 0-0.054-0.012-0.082-0.039-0.238-0.133-0.519-0.309-0.84-0.52-0.878-0.531-1.492-1.082-1.839-1.64-0.028-0.028-0.039-0.051-0.039-0.078-0.055-0.11-0.106-0.204-0.161-0.282-0.027-0.027-0.05-0.066-0.078-0.121v-0.039c-0.027-0.027-0.043-0.055-0.043-0.078l-0.437-0.684c-0.082-0.105-0.149-0.211-0.203-0.316-0.051-0.082-0.106-0.16-0.157-0.242l-0.082-0.16-0.039-0.039c-0.082-0.215-0.148-0.36-0.199-0.442 0-0.027-0.015-0.051-0.043-0.078v-0.082c-0.027-0.027-0.051-0.051-0.078-0.082-0.027 0-0.055-0.012-0.082-0.039h-0.117c-0.082 0-0.16 0.016-0.242 0.039 0.242 0.242 0.441 0.723 0.601 1.441 0.16 0.801 0.36 1.332 0.598 1.602l0.203 0.117 0.039 0.043 0.481 0.32c1.277 0.664 2.093 1.172 2.437 1.52 0.109 0.105 0.309 0.344 0.602 0.719 0.214 0.32 0.414 0.547 0.601 0.679l0.68 0.321c0.344 0.187 0.586 0.375 0.719 0.562 0.054 0.051 0.078 0.145 0.078 0.278v0.043c-0.078 0.16-0.266 0.277-0.559 0.359-0.293 0.051-0.48 0.094-0.558 0.121l-0.243 0.078c-0.933 0.238-1.492 0.453-1.679 0.641l-0.039 0.039c0.32 0.265 0.746 0.375 1.281 0.32 0.183 0 0.68-0.078 1.48-0.238h0.078z" inkscape:connector-curvature="0"/>
      <path id="path28" style="fill-rule:evenodd;fill:#baaf83" d="m35.004 21.021-0.039 0.199v0.082c0 0.078 0.012 0.145 0.039 0.199 0.055 0.641 0.066 1.172 0.039 1.602h0.043c0.027 0.023 0.055 0.039 0.078 0.039v0.039c0.188-0.078 0.32-0.305 0.398-0.68 0.028-0.082 0.094-0.226 0.204-0.441 0.05-0.184 0.066-0.32 0.039-0.398v-0.039c-0.028-0.11-0.188-0.254-0.481-0.442-0.133-0.055-0.242-0.105-0.32-0.16zm-1.719 0.762c0.078-0.137 0.145-0.282 0.199-0.442 0.051-0.133 0.106-0.293 0.161-0.48 0.05-0.16 0.117-0.348 0.199-0.559l-0.16-0.121c-0.028 0.16-0.094 0.359-0.2 0.602-0.054 0.132-0.121 0.277-0.199 0.437-0.082 0.16-0.137 0.309-0.16 0.442 0.051 0.054 0.105 0.093 0.16 0.121zm-3.723-5.762c-0.21-0.613-0.398-1.094-0.558-1.441l0.281 0.722 0.277 0.719zm0.883 1.16 0.039 0.078h0.039c0 1.121 0.106 1.961 0.321 2.524 0.051 0.211 0.117 0.371 0.199 0.476 0.187 0.16 0.387 0.309 0.602 0.442 0.05-0.078 0.144-0.227 0.277-0.442 0.137-0.211 0.32-0.519 0.562-0.918-0.242-0.16-0.441-0.304-0.601-0.441-0.399-0.504-0.707-0.891-0.918-1.16-0.16-0.16-0.309-0.321-0.442-0.481l-0.078-0.078zm-2.883-3.601 0.122 0.082 0.039-0.321c-0.047-0.023-0.094-0.058-0.141-0.101l0.102 0.101-0.122 0.239zm-0.519-0.321 0.199-0.238c-0.453-0.32-0.984-0.695-1.597-1.121l-0.122 0.242 1.52 1.117zm-2.238-1.918 0.398 0.282 0.121 0.078 0.16 0.082c-0.214-0.133-0.441-0.282-0.679-0.442zm-0.282-0.199c-0.238-0.16-0.492-0.332-0.761-0.519v0.039c0.054 0.132 0.054 0.281 0 0.441l0.523 0.277 0.238-0.238zm-2.281-0.961-0.199 0.359 0.641-1.078-0.079-0.16-0.082 0.399-0.281 0.48zm0.602-0.441-0.239 0.601v0.078c0.157 0.161 0.344 0.282 0.559 0.36l0.238-0.399c-0.211-0.16-0.398-0.371-0.558-0.64zm-1.879-3.078 0.117 0.117c-0.051-0.078-0.105-0.156-0.16-0.239l0.043 0.122zm-1.883 0.281c0.16-0.27 0.414-0.602 0.762-1 0.265-0.375 0.453-0.574 0.558-0.602l0.121 0.559c-0.078-0.508-0.16-0.785-0.238-0.84-0.082-0.051-0.215-0.023-0.402 0.082-0.188 0.106-0.321 0.172-0.399 0.199v0.082c0.161 0.586-0.039 0.957-0.601 1.117l-1.36-0.199v-0.32c-0.16 0.055-0.265 0.094-0.32 0.121-0.187 0.051-0.375 0.106-0.558 0.16 0 0.184-0.055 0.348-0.161 0.481l-0.64 0.238c0-0.106-0.028-0.188-0.082-0.242-0.106-0.051-0.172-0.106-0.2-0.156-0.371 0.105-0.757 0.199-1.16 0.277 0 0.109-0.011 0.203-0.039 0.281l-0.359 0.399-0.641 0.16c-0.293 0.027-0.535-0.067-0.718-0.278v-0.043l-0.04-0.039c-0.082-0.078-0.148-0.187-0.203-0.32-0.183 0-0.359-0.023-0.519-0.078 0.082 0.133 0.176 0.266 0.281 0.398l-0.281 0.442-1.278-0.84c-0.109-0.082-0.187-0.203-0.242-0.359-0.027-0.083-0.054-0.161-0.078-0.243-0.187-0.054-0.375-0.066-0.562-0.039-0.239 0-0.532 0.051-0.879 0.16 0 0.184-0.016 0.348-0.039 0.481-0.028 0.133-0.149 0.371-0.36 0.719l-1.121-0.082c-0.082-0.079-0.133-0.211-0.16-0.399-0.266 0.133-0.508 0.254-0.719 0.36l0.039 0.082c0 0.132-0.093 0.359-0.281 0.679l-1.039 0.121c-0.082-0.058-0.137-0.136-0.16-0.242-0.188 0.055-0.359 0.094-0.52 0.121 0 0.133-0.039 0.266-0.121 0.399-0.16 0.297-0.398 0.414-0.718 0.363l-0.563 0.078c-0.023 0.133-0.051 0.266-0.078 0.399l0.078 0.043v-0.161c0.563 0.106 1.027 0.106 1.402 0l0.239-0.082 0.441-0.16v0.039l0.039-0.039h-0.039l0.84-0.359 0.039 0.039c0.535-0.238 1.148-0.531 1.84-0.879 0.668-0.242 1.187-0.387 1.562-0.441h0.477c0.137 0.027 0.496 0.199 1.082 0.519l0.199 0.082h0.039c0.137 0.055 0.309 0.078 0.52 0.078 0.187 0.028 0.468 0.043 0.843 0.043h0.079c0.16 0 0.347-0.027 0.558-0.082h0.043c0.211-0.027 0.438-0.078 0.68-0.16 0.586-0.133 1.437-0.266 2.558-0.398 0.215-0.028 0.629-0.161 1.239-0.403 0.136-0.051 0.254-0.09 0.363-0.117 0.238-0.082 0.437-0.133 0.598-0.16 0.082-0.027 0.16-0.039 0.242-0.039h0.117zm15.32 14.316c-0.027 0.297-0.093 0.602-0.199 0.922 0.055-0.133 0.094-0.266 0.121-0.398 0.051-0.16 0.078-0.336 0.078-0.524z" inkscape:connector-curvature="0"/>
      <path id="path30" style="fill-rule:evenodd;fill:#9f9670" d="m34.164 22.341c0.078 0.055 0.16 0.121 0.238 0.199l0.282 0.282c0.132 0.105 0.254 0.199 0.359 0.281 0.027-0.43 0.016-0.961-0.039-1.602-0.027-0.054-0.039-0.121-0.039-0.199v-0.082l0.039-0.199-0.32-0.16-0.282-0.199c0.028 0.132 0.043 0.281 0.043 0.441l-0.043 0.156c0 0.188-0.027 0.364-0.078 0.524-0.027 0.132-0.066 0.265-0.121 0.398l-0.039 0.16zm-0.32-2.039c-0.082 0.211-0.149 0.399-0.199 0.559-0.055 0.187-0.11 0.347-0.161 0.48-0.054 0.16-0.121 0.305-0.199 0.442 0.024 0.023 0.051 0.039 0.078 0.039 0.188-0.215 0.399-0.496 0.641-0.84 0.082-0.133 0.172-0.266 0.281-0.402l-0.441-0.278zm-0.719-0.519-0.402 0.84c-0.078 0.238-0.161 0.464-0.239 0.679 0.188 0.106 0.399 0.227 0.641 0.36 0.023-0.133 0.078-0.282 0.16-0.442 0.078-0.16 0.145-0.305 0.199-0.437 0.106-0.243 0.172-0.442 0.2-0.602v-0.039l-0.2-0.082-0.359-0.277zm-1.402 1c0.054-0.11 0.121-0.227 0.199-0.364l0.601-1.039-0.039-0.039c-0.242 0.399-0.425 0.707-0.562 0.918-0.133 0.215-0.227 0.364-0.277 0.442l0.078 0.082zm-2.559-2.481c0.242-0.375 0.547-0.883 0.918-1.519-0.16-0.188-0.293-0.375-0.398-0.563l-0.039-0.039-0.602 1.399c-0.051 0.136-0.094 0.253-0.121 0.363l0.242 0.359zm-1.48-4.64 0.16-0.2-0.121-0.121-0.039 0.321zm-5.801-5.801-0.641-0.84c-0.051-0.055-0.094-0.121-0.117-0.199l-0.043-0.039-0.117-0.121c-0.11 0.773-0.137 1.265-0.082 1.48l0.121 0.359 0.281-0.32c0.211-0.187 0.41-0.293 0.598-0.32zm0.679 1.359-0.48 0.801 0.16 0.16 0.281-0.48 0.082-0.399-0.043-0.082zm7.922 8.039-0.562 2.043c0.137 0.133 0.297 0.278 0.484 0.438l0.156 0.16c0.161 0.137 0.321 0.254 0.481 0.359-0.078-0.105-0.145-0.265-0.199-0.476-0.215-0.563-0.321-1.403-0.321-2.524h-0.039zm-1.48-2.679c-0.481 0.773-0.813 1.386-1 1.839-0.027 0.055-0.039 0.121-0.039 0.204 0.051 0.105 0.094 0.171 0.117 0.199 0.027 0.027 0.055 0.066 0.082 0.121 0.508-0.856 0.879-1.403 1.121-1.641l-0.281-0.722z" inkscape:connector-curvature="0"/>
      <path id="path32" style="fill-rule:evenodd;fill:#7f785a" d="m34.402 20.662-0.117-0.082c-0.109 0.136-0.203 0.269-0.281 0.402-0.242 0.344-0.453 0.625-0.641 0.84 0.188 0.133 0.399 0.265 0.641 0.398h0.039c0 0.028 0.027 0.055 0.082 0.082l0.039 0.039 0.043-0.16c0.105-0.32 0.172-0.625 0.199-0.922l0.039-0.156c0-0.16-0.015-0.309-0.043-0.441zm-1.879-1.282-0.601 1.039c-0.078 0.137-0.145 0.254-0.199 0.364 0.027 0.023 0.066 0.05 0.121 0.078l0.16 0.121c0.133 0.078 0.293 0.187 0.48 0.32 0.078-0.215 0.161-0.441 0.239-0.679l0.402-0.84-0.602-0.403zm-2.078-2.199c-0.027 0-0.043-0.012-0.043-0.039v-0.039l-0.199-0.203c-0.055-0.024-0.094-0.067-0.121-0.117-0.371 0.636-0.68 1.144-0.918 1.519l0.52 0.719 0.078 0.039c0.027 0.082 0.082 0.16 0.16 0.242l0.562-2.043-0.039-0.078zm-0.883-1.16-0.277-0.719c-0.242 0.238-0.613 0.785-1.121 1.641 0.106 0.16 0.227 0.332 0.359 0.519l0.399 0.481c0.027-0.11 0.07-0.227 0.121-0.363l0.602-1.399c-0.028-0.055-0.055-0.105-0.083-0.16zm-1.078-2.121-0.441 1.043c-0.027 0.051-0.039 0.105-0.039 0.16l-0.442 1 0.122 0.156-0.039-0.039c0.132 0.16 0.238 0.293 0.32 0.403 0-0.083 0.012-0.149 0.039-0.204 0.187-0.449 0.519-1.066 1-1.839-0.055-0.106-0.109-0.2-0.16-0.278 0-0.027-0.028-0.066-0.082-0.121-0.078-0.078-0.172-0.172-0.278-0.281zm-1.441 1.601 0.719-1c0.136-0.242 0.297-0.492 0.48-0.761l-0.199-0.117c-0.055-0.055-0.121-0.11-0.199-0.161l-0.16 0.2-0.122-0.082c-0.32 0.695-0.546 1.253-0.679 1.679 0 0.028 0.015 0.055 0.039 0.082 0.027 0.055 0.066 0.106 0.121 0.16zm-1.719-3.8c-0.215 0.586-0.32 1.054-0.32 1.402 0.238 0.238 0.519 0.543 0.84 0.918 0.133 0.055 0.238 0.066 0.32 0.039 0.106-0.027 0.281-0.16 0.52-0.398l0.359-0.403-1.52-1.117 0.122-0.242c-0.055-0.024-0.106-0.067-0.161-0.117l-0.16-0.082zm-0.121-0.078-0.398-0.282-0.282-0.199-0.238 0.238-0.523-0.277-0.039 0.039c-0.028 0.133-0.133 0.371-0.321 0.719 0.028 0.027 0.055 0.039 0.082 0.039 0 0.027 0.012 0.043 0.039 0.043l0.719 0.519c0.082 0.051 0.16 0.106 0.242 0.161 0 0.023 0.012 0.039 0.039 0.039l0.2-0.403c0.16-0.344 0.32-0.558 0.48-0.636zm-1.801-1.243-0.238 0.403c-0.215-0.082-0.402-0.203-0.559-0.36v-0.082l0.239-0.601-0.16-0.278-0.641 1.078 0.199 0.122 0.203 0.199 0.477 0.32c0.109 0.027 0.203 0.027 0.281 0 0.106-0.027 0.281-0.226 0.52-0.601l-0.118-0.04-0.203-0.16zm-0.84-1.16c-0.023-0.027-0.039-0.051-0.039-0.078l-0.48-1.082c-0.055-0.082-0.105-0.148-0.16-0.199-0.188 0.027-0.387 0.133-0.598 0.32l-0.281 0.32-0.121-0.359c-0.055-0.215-0.028-0.707 0.082-1.48l-0.043-0.122c-0.16-0.214-0.293-0.425-0.399-0.64l-0.121-0.559c-0.105 0.028-0.293 0.227-0.558 0.602-0.348 0.398-0.602 0.73-0.762 1 0.027 0.023 0.055 0.039 0.082 0.039 0.027 0.027 0.051 0.055 0.078 0.078v0.082c0.028 0.027 0.043 0.051 0.043 0.078 0.051 0.082 0.117 0.227 0.199 0.442l0.039 0.039 0.082 0.16c0.051 0.082 0.106 0.16 0.157 0.242 0.109 0.051 0.215 0.133 0.32 0.238 0.297 0.188 0.547 0.282 0.762 0.282s0.371-0.028 0.48-0.083c0.852-0.48 1.012-0.304 0.481 0.52-0.293 0.426-0.442 0.707-0.442 0.84 0 0.137 0.16 0.308 0.481 0.519l0.199 0.121 0.199-0.359-0.16-0.16 0.48-0.801z" inkscape:connector-curvature="0"/>
      <path id="path34" style="fill-rule:evenodd;fill:#f2e7ba" d="m5.043 12.58 0.68 0.64c0.082 0.055 0.293 0.16 0.64 0.32 0.293 0.161 0.426 0.321 0.399 0.481l-0.117 0.359 0.398 0.481c0.055-0.133 0.172-0.348 0.359-0.641 0.188-0.293 0.309-0.504 0.36-0.64-0.399-0.106-0.703-0.2-0.918-0.278-0.133-0.054-0.399-0.281-0.801-0.679-0.371-0.321-0.586-0.52-0.641-0.602-0.105-0.266-0.023-0.613 0.243-1.039-0.215-0.133-0.375-0.242-0.481-0.32-0.242-0.161-0.375-0.309-0.402-0.442-0.051-0.183 0.082-0.508 0.402-0.961v-0.039l-0.441 0.16c-0.321 0.243-0.481 0.387-0.481 0.442-0.078 0.16-0.039 0.386 0.121 0.679 0.188 0.266 0.293 0.454 0.321 0.559 0.078 0.188 0.121 0.453 0.121 0.801l0.078 0.558v0.043l0.16 0.118zm4 4.441 1.199-0.281c0.215-0.078 0.387-0.2 0.52-0.36-0.078-0.132-0.344-0.254-0.797-0.359-0.426-0.106-0.68-0.266-0.762-0.481-0.027-0.05-0.012-0.16 0.039-0.32 0.055-0.133 0.028-0.226-0.078-0.277-0.027-0.028-0.148-0.016-0.359 0.039-0.243 0.051-0.375 0.078-0.403 0.078-0.453 0.055-0.73 0.109-0.84 0.16l-0.199 0.082 0.199 0.321 0.321-0.083c0.347-0.16 0.574-0.226 0.679-0.199 0.055 0.028 0.067 0.133 0.043 0.321 0.293 0.265 0.465 0.464 0.52 0.597 0.078 0.215 0.051 0.469-0.082 0.762zm13.402 2.559v0.082l0.637 0.238c-0.984 0.348-1.758 0.387-2.32 0.121 0.32 0.055 0.75-0.078 1.281-0.398-0.481 0.023-0.934 0.132-1.359 0.32 0.078 0.183 0.375 0.437 0.878 0.758l2.52-0.321c0.137-0.425-0.199-0.691-1-0.8h-0.637zm-8.441 1.203c0.215-0.055 0.558-0.11 1.039-0.16 0.402-0.11 0.652-0.309 0.762-0.602l0.039-0.078-0.442-0.32-0.359-0.204c-0.078-0.023-0.266-0.023-0.559 0-0.242 0.055-0.402 0.043-0.48-0.039-0.106-0.105-0.121-0.254-0.039-0.437 0.078-0.215 0.105-0.375 0.078-0.481-0.055-0.136-0.215-0.269-0.481-0.402-0.292-0.133-0.492-0.227-0.597-0.277-0.723-0.457-1.375-0.641-1.961-0.563h-0.082l-0.84 0.281c0.137 0.028 0.48 0.215 1.043 0.559 0.504 0.32 1.254 0.789 2.238 1.402 0.293 0.211 0.481 0.414 0.559 0.598 0.109 0.215 0.137 0.453 0.082 0.723zm9.16 1.957c0.133 0.242 0.266 0.386 0.398 0.441l2.961-0.16c-0.105-0.051-0.48-0.348-1.121-0.879-0.453-0.375-0.89-0.535-1.32-0.48-0.613 0.078-0.973 0.265-1.078 0.558-0.027 0.16 0.027 0.336 0.16 0.52zm-6.641-0.637c0.11-0.055 0.204-0.055 0.282 0 0.133 0.023 0.304 0.105 0.519 0.238 0.106 0.078 0.254 0.199 0.438 0.36 0.187 0.132 0.601 0.359 1.242 0.679v-0.078c-0.027-0.215-0.188-0.426-0.481-0.64-0.347-0.215-0.574-0.348-0.679-0.403-0.188-0.133-0.332-0.226-0.442-0.277-0.183-0.133-0.332-0.188-0.437-0.16-0.184 0.129-0.328 0.222-0.442 0.281zm2.481-0.48c0.078 0.238 0.305 0.464 0.68 0.679 0.214 0.106 0.519 0.266 0.921 0.481l1.68 0.078c-0.055-0.692-0.68-1.227-1.883-1.602-0.531-0.211-1-0.09-1.398 0.364zm-0.762-0.602 1.363-0.481c0.317-0.347 0.239-0.597-0.242-0.757-0.105-0.028-0.48-0.067-1.121-0.121-0.265-0.082-0.504-0.133-0.719-0.161-0.398-0.027-0.652 0.039-0.761 0.2-0.239 0.347 0.027 0.734 0.8 1.16l0.442 0.242 0.238-0.082zm-2.68 1.199-0.238-0.039 0.399 0.481 0.679-0.52-0.597 0.117-0.243-0.039zm3.321-4.16 2.562 0.641c0.399-0.453 0.41-0.852 0.039-1.2-0.507-0.32-0.839-0.535-1-0.64-0.668-0.399-1.668-0.719-3-0.961-0.242 0.375-0.132 0.816 0.321 1.32 0.32 0.348 0.679 0.629 1.078 0.84zm-1.961-3.957c-0.078 0.184-0.024 0.437 0.16 0.758 0.082 0.16 0.203 0.347 0.363 0.558l1.317-0.437 0.402-0.68h-0.039c-0.27-0.215-0.613-0.347-1.043-0.402l-0.477-0.078c-0.296-0.055-0.507 0.011-0.64 0.199l-0.043 0.082zm0.363 3.879c-0.055-0.106-0.203-0.215-0.441-0.32-0.293-0.133-0.465-0.227-0.52-0.282-0.187-0.132-0.414-0.386-0.679-0.757-0.106-0.215-0.2-0.536-0.282-0.961-0.215-0.481-0.574-0.747-1.078-0.801-0.562 0-0.855 0.16-0.883 0.48 0 0.133 0.11 0.305 0.321 0.52 0.293 0.265 0.441 0.414 0.441 0.441 0.027 0.024 0.172 0.293 0.441 0.801 0.184 0.316 0.372 0.531 0.559 0.637l0.84 0.679c0.215 0.137 0.535 0.176 0.961 0.121 0.426-0.027 0.531-0.214 0.32-0.558zm-10-9.199c-0.402 0.211-0.601 0.425-0.601 0.64-0.028 0.106 0.093 0.25 0.359 0.438 0.242 0.187 0.414 0.265 0.519 0.242 0.188-0.027 0.454-0.242 0.801-0.641 0.188-0.132 0.399-0.214 0.641-0.242 0.32-0.051 0.535-0.105 0.641-0.16l-0.282-0.316c-0.32-0.188-0.508-0.293-0.558-0.321-0.243-0.082-0.481-0.082-0.723 0-0.266 0.078-0.531 0.2-0.797 0.36zm3.438 3.797c0.105 0.054 0.281 0.175 0.519 0.363 0.215 0.16 0.403 0.265 0.563 0.316 0.371 0.082 0.972 0.094 1.8 0.043l-0.683-0.562c-0.184-0.426-0.344-0.719-0.477-0.879-0.187-0.188-0.468-0.281-0.84-0.281-0.16 0-0.496-0.067-1-0.2-0.402-0.105-0.734-0.144-1-0.121-0.082 0.293 0.024 0.574 0.317 0.844 0.027 0.023 0.297 0.184 0.801 0.477zm2.562-4.36h-0.043c-0.211 0.055-0.398 0.082-0.558 0.082-0.106 0.399-0.028 0.692 0.238 0.879 0.187 0.133 0.496 0.293 0.922 0.481l0.32-0.719c-0.105-0.348-0.402-0.59-0.879-0.723zm1.238 2.602-0.238 0.078c0 0.215 0.277 0.492 0.84 0.84l0.277 0.203c0.16 0.183 0.387 0.48 0.68 0.879l0.48-1.121c-0.371-0.293-0.679-0.508-0.917-0.641-0.454-0.266-0.829-0.344-1.122-0.238z" inkscape:connector-curvature="0"/>
      <path id="path36" style="fill-rule:evenodd;fill:#69634a" d="m28.242 13.74c-0.183 0.269-0.347 0.519-0.48 0.761l-0.719 1 0.519 0.602 0.442-1c0-0.055 0.012-0.109 0.039-0.16l0.441-1.043-0.242-0.16zm-1-0.719-0.199 0.238-0.359 0.403c-0.239 0.238-0.414 0.371-0.52 0.398-0.082 0.027-0.187 0.016-0.32-0.039 0.187 0.238 0.398 0.492 0.64 0.762 0 0.023 0.012 0.05 0.039 0.078 0.055 0.082 0.122 0.148 0.2 0.199 0.054 0.082 0.105 0.148 0.16 0.199 0.133-0.426 0.359-0.984 0.679-1.679l0.122-0.239-0.122-0.121c-0.105-0.051-0.21-0.117-0.32-0.199zm-5.199-2.481-0.199-0.121c-0.321-0.211-0.481-0.382-0.481-0.519 0-0.133 0.149-0.414 0.442-0.84 0.531-0.824 0.371-1-0.481-0.52-0.105 0.055-0.265 0.083-0.48 0.083s-0.465-0.094-0.762-0.282c-0.105-0.105-0.211-0.187-0.32-0.238 0.054 0.105 0.121 0.211 0.203 0.316l0.437 0.684c0 0.023 0.016 0.051 0.043 0.078v0.039c0.024 0.055 0.051 0.094 0.078 0.121 0.055 0.078 0.106 0.172 0.161 0.282 0 0.023 0.011 0.05 0.039 0.078 0.347 0.558 0.961 1.109 1.839 1.64 0.321 0.215 0.602 0.387 0.84 0.52 0.188-0.348 0.293-0.586 0.321-0.719l0.039-0.039c0.054-0.16 0.054-0.309 0-0.441v-0.039l-0.039-0.043c-0.239 0.375-0.414 0.574-0.52 0.601-0.078 0.027-0.172 0.027-0.281 0l-0.477-0.32-0.203-0.199-0.199-0.122zm2.961 2.563c0-0.348 0.105-0.816 0.32-1.402l-0.121-0.078c-0.16 0.078-0.32 0.292-0.48 0.636l-0.2 0.403c0.028 0.027 0.055 0.039 0.082 0.039v0.039c0.106 0.109 0.239 0.226 0.399 0.363z" inkscape:connector-curvature="0"/>
      <path id="path38" style="fill-rule:evenodd;fill:#baad7e" d="m17.402 5.623c0.055 0.156 0.094 0.292 0.121 0.398v0.32l1.36 0.199c0.562-0.16 0.762-0.531 0.601-1.121v-0.078c-0.105-0.293-0.265-0.679-0.48-1.16-0.293-1.387-0.508-2.226-0.641-2.519-0.347-0.907-0.867-1.442-1.558-1.602-0.883-0.211-1.254 0.133-1.121 1.043v0.098c0.004 0.082 0.019 0.156 0.039 0.218l0.082-0.078c0.05-0.293 0.199-0.414 0.437-0.359 0.801 0 1.27 0.305 1.403 0.918l0.078 0.48c0.48 0.399 0.761 0.895 0.839 1.481 0.028 0.054 0.028 0.121 0 0.199 0.055 0.426-0.066 0.906-0.359 1.441-0.133 0.133-0.238 0.2-0.32 0.2l-0.481-0.078zm-0.757 0.679c0-0.109-0.028-0.226-0.083-0.359-0.05-0.215-0.16-0.481-0.32-0.801-0.32-1.148-0.625-1.949-0.918-2.402-0.402-0.692-0.961-1.25-1.679-1.68-0.243-0.16-0.415-0.211-0.52-0.16-0.109 0.055-0.254 0.254-0.441 0.601l0.359 0.559h0.039c0.109-0.078 0.215-0.105 0.32-0.078 1.121 0.586 1.868 1.613 2.243 3.078 0.05 0.16 0 0.32-0.161 0.48 0 0.133-0.039 0.27-0.121 0.403-0.027 0.105-0.093 0.183-0.199 0.238 0.039 0.043 0.078 0.082 0.121 0.121v0.039c0.078 0.106 0.16 0.199 0.238 0.282h0.039c0.028 0.05 0.094 0.105 0.2 0.16 0.054 0.05 0.082 0.132 0.082 0.238l0.64-0.238c0.106-0.133 0.161-0.297 0.161-0.481zm-4.243 0.758c0.055 0.133 0.121 0.242 0.203 0.32l0.04 0.039c0.05 0.082 0.117 0.149 0.199 0.204 0.16 0.078 0.332 0.117 0.519 0.117l0.641-0.16 0.359-0.399c0.028-0.082 0.039-0.172 0.039-0.281 0-0.215-0.105-0.453-0.32-0.719l0.082-0.68-0.082-0.558c-0.184-0.75-0.504-1.535-0.957-2.363-0.187-0.344-0.348-0.586-0.48-0.719-0.215-0.16-0.497-0.238-0.84-0.238-0.403-0.055-0.696-0.067-0.883-0.043-0.317 0.054-0.449 0.281-0.399 0.683 1.227 0.371 2.106 1.051 2.641 2.039 0.188 0.321 0.281 0.719 0.281 1.199-0.027 0.559-0.23 0.961-0.601 1.2-0.188 0.136-0.375 0.148-0.559 0.043h-0.043c0.055 0.105 0.11 0.211 0.16 0.316zm-5.48-0.641h-0.039l0.199 0.524c0.027 0.105 0.055 0.199 0.082 0.277 0.027 0.188 0.078 0.32 0.16 0.403l1.121 0.078c0.211-0.348 0.332-0.586 0.36-0.719 0.023-0.133 0.039-0.293 0.039-0.481-0.028-0.078-0.055-0.16-0.082-0.238-0.051-0.16-0.317-0.683-0.797-1.562-0.403-0.774-0.68-1.282-0.84-1.52-0.375-0.48-0.816-0.785-1.32-0.918-0.348 0.426-0.535 0.719-0.563 0.879 0 0.106 0.028 0.188 0.082 0.238 0.106-0.211 0.254-0.277 0.438-0.199 0.883 0.426 1.547 1.332 2 2.719 0.054 0.137 0.043 0.269-0.039 0.402-0.106 0.133-0.211 0.199-0.321 0.199l-0.48-0.082zm3.363-0.039c0.024 0.082 0.051 0.16 0.078 0.243 0.055 0.16 0.133 0.281 0.242 0.359l1.278 0.84 0.281-0.442c-0.105-0.132-0.199-0.265-0.281-0.398-0.211-0.242-0.36-0.492-0.438-0.762-0.16-0.344-0.402-0.851-0.722-1.519-0.266-0.692-0.438-1.227-0.52-1.598-0.187-0.75-0.359-1.215-0.519-1.402-0.266-0.321-0.641-0.414-1.122-0.278h-0.039c-0.293 0.133-0.425 0.344-0.398 0.637 0 0.082 0.012 0.176 0.039 0.281l0.039-0.039c0.055-0.054 0.149-0.082 0.281-0.082 0.559 0.028 0.934 0.426 1.121 1.199l0.477 0.84c0.43 0.828 0.469 1.453 0.121 1.883l-0.039 0.039c0.027 0.027 0.066 0.094 0.121 0.199zm-7.363-2.558c-0.051 0.133-0.094 0.254-0.117 0.359 0.105-0.055 0.172-0.066 0.199-0.039 1.172 0.426 1.984 1.531 2.441 3.316 0.024 0.161-0.015 0.293-0.121 0.403-0.105 0.133-0.226 0.187-0.359 0.16 0.051 0.23 0.117 0.379 0.199 0.437l1.039-0.117c0.188-0.32 0.281-0.547 0.281-0.679l-0.039-0.082c-0.082-0.106-0.23-0.305-0.441-0.598-0.426-0.453-0.719-0.828-0.879-1.121-0.137-0.184-0.254-0.465-0.363-0.84-0.106-0.453-0.184-0.746-0.239-0.879-0.05-0.187-0.171-0.387-0.359-0.602-0.215-0.238-0.414-0.347-0.602-0.32-0.16 0-0.32 0.11-0.48 0.32-0.051 0.11-0.105 0.2-0.16 0.282zm0.16 5.359 0.563-0.078c0.32 0.051 0.558-0.066 0.718-0.363 0.082-0.133 0.121-0.266 0.121-0.399-0.027-0.133-0.066-0.254-0.121-0.359-0.425-0.668-0.734-1.094-0.918-1.281-0.297-0.215-0.523-0.375-0.683-0.481-0.266-0.211-0.465-0.414-0.598-0.597-0.215-0.321-0.387-0.563-0.519-0.723-0.215-0.266-0.442-0.426-0.68-0.481-0.055-0.027-0.094-0.039-0.121-0.039-0.188 0-0.36 0.082-0.52 0.243 0.078-0.055 0.16-0.043 0.238 0.039 0.348 0.293 0.934 0.691 1.762 1.199 0.664 0.531 1.012 1.176 1.039 1.918 0 0.16-0.093 0.308-0.281 0.441v0.442c0 0.078-0.051 0.171-0.16 0.281l0.082 0.16 0.039 0.078h0.039z" inkscape:connector-curvature="0"/>
    </g>
  </g>
<metadata><rdf:RDF><cc:Work><dc:format>image/svg+xml</dc:format><dc:type rdf:resource="http://purl.org/dc/dcmitype/StillImage"/><cc:license rdf:resource="http://creativecommons.org/licenses/publicdomain/"/><dc:publisher><cc:Agent rdf:about="http://openclipart.org/"><dc:title>Openclipart</dc:title></cc:Agent></dc:publisher></cc:Work><cc:License rdf:about="http://creativecommons.org/licenses/publicdomain/"><cc:permits rdf:resource="http://creativecommons.org/ns#Reproduction"/><cc:permits rdf:resource="http://creativecommons.org/ns#Distribution"/><cc:permits rdf:resource="http://creativecommons.org/ns#DerivativeWorks"/></cc:License></rdf:RDF></metadata></svg>
