<?xml version="1.0"?>
<svg xmlns:rdf="http://www.w3.org/1999/02/22-rdf-syntax-ns#" xmlns="http://www.w3.org/2000/svg" xmlns:cc="http://web.resource.org/cc/" xmlns:dc="http://purl.org/dc/elements/1.1/" xmlns:svg="http://www.w3.org/2000/svg" id="svg2" viewBox="0 0 191.43 558.81" version="1.0">
  <g id="layer2" transform="translate(13.662 -181.7)">
    <path id="path2415" d="m64.249 533.41l12.122-0.5 0.505-47.98 5.051 48.99 12.627-1.52 19.696-30.3-38.889-47.98-10.607 1.01-0.505 78.28z" fill-rule="evenodd" stroke="#000" stroke-width="1px" fill="#520"/>
    <path id="path2417" d="m34.068 395.25c-4.524 40.24-9.047 80.48-13.571 120.72 4.328 20.78 8.001 41.74 12.742 62.4 11.864 32.95 18.831 70.5 5.115 104.03-13.571 7.62-27.143 15.23-40.714 22.85-1.0514 17.55 56.121 4.44 70.714 3.57 1.775-13.72-2.777-27.37-0.761-41.19 1.249-17.13 4.293-34.06 10.078-50.25 10.907-27.3-1.33-35.62-14.317-60.7 3.095-29.05 6.19-58.09 9.286-87.14 12.917 31.06 25.156 62.43 38.5 93.28 4.75 29.9 14.51 55.72 23.79 84.8 4.05 18.9 9.37 39.32 3.32 58.24-5.21 8.37-10.41 16.74-15.61 25.11 3.32 2.56 4.69 9.91 9.46 8.96 24.71-3.53 27.95 1.03 39.75-21.88-1.8-16.87-6.57-33.36-7.5-50.39 9.67-69.36-13.42-111.99-44.8-172.44-10.4-33.56-20.797-67.12-31.196-100.68-18.095 0.24-36.191 0.48-54.286 0.71z" fill-rule="evenodd" stroke="#000" stroke-width="1px" fill="#a40"/>
    <path id="path2423" d="m36.925 418.82l11.429 29.29 22.143 15.71 2.857 6.43" fill-rule="evenodd" stroke="#000" stroke-width="1px" fill="#a40"/>
    <path id="path2425" d="m84.783 417.4c-10.209 7.44-14.297 17.33-15 28.57" fill-rule="evenodd" stroke="#000" stroke-width="1px" fill="#a40"/>
    <path id="path2427" d="m71.211 457.4c2.988-9.44 3.467-19.49 13.572-27.15" fill-rule="evenodd" stroke="#000" stroke-width="1px" fill="#a40"/>
    <path id="path2435" d="m152.21 553.68c-2.86 0-45-167.14-45-167.14l-25.713 10.71 11.428 125c5.058 26.71 19.725 35.39 40.005 33.57l19.28-2.14z" fill-rule="evenodd" stroke="#000" stroke-width="1px" fill="#520"/>
    <path id="path2437" d="m156.21 551.68c-2.86 0-45-167.14-45-167.14l-25.713 10.71 11.428 125c5.055 26.71 19.725 35.39 40.005 33.57l19.28-2.14z" fill-rule="evenodd" stroke="#000" stroke-width="1px" fill="#520"/>
    <path id="path2439" d="m9.6397 544.4l20.357-151.43 5 2.14c-2.016 59.82-9.963 148.52-25.357 149.29z" fill-rule="evenodd" stroke="#000" stroke-width="1px" fill="#520"/>
    <path id="path2441" d="m8.1397 542.4l20.357-151.43 5 2.14c-2.016 59.82-9.963 148.52-25.357 149.29z" fill-rule="evenodd" stroke="#000" stroke-width="1px" fill="#520"/>
    <path id="path2453" d="m-135.25 97.969l-19.13 12.841-26.37-1.03c0.25-1.89 1.97-4.33 5.16-7.19l-3.22-1.43-21.78 6.43c-0.74 1.94-1.34 3.82-1.85 5.63l-0.31-2.41c-14.33 10.21-24.48 21.63-14.63 42.16l-10.37 42.84c-17.9 29.89-7.14 59.77-8.91 89.66l-2.4 6.84 16.97-1.12 22.78-69.66 2.65 1.44c23.8 5.64 41.61 3.81 57.85 0l18.56-3.22-1.06-32.5-0.35-4.28 11.41-14.66c12.404 36.38 28.099 70.55 35.375 110.35-0.501 2.82-1.323 5.4-2.5 7.68 5.596-4.97 14.168-2.9 19.937 0.32 12.299-48.95-9.768-87.44-21.374-133.35 1.368-16.36 0.07-31.19-11.782-40l-4.781-0.19 0.5-0.53c-10.495-7.83-22.365-14.297-40.375-14.621z" fill-rule="evenodd" transform="translate(231.09 170.87)" stroke="#000" stroke-width="1px" fill="#520"/>
    <path id="path2467" d="m56.925 269.54c0.396 1.55 1.172 3.09-0.714 4.64l-16.786 8.57c14.619 27.89 43.364 10.69 63.215-2.85l-7.5-11.08c-4.689-0.57-2.044-7.55-2.857-11.42l-35 8.21-0.358 3.93z" fill-rule="evenodd" stroke="#000" stroke-width="1px" fill="#ff8080"/>
    <path id="path2485" d="m120.14 338.47l-7.5-21.07" stroke="#000" stroke-width="1px" fill="none"/>
    <path id="path2489" d="m30.497 370.25c33.298 6.85 54.544-1.64 77.853-7.5l2.15 27.5c-25.956 4.7-62.265 11.69-81.075-0.35l1.072-19.65z" fill-rule="evenodd" stroke="#000" stroke-width="1px" fill="#d40000"/>
    <path id="path2493" d="m21.568 362.4c5.526-2.36 8.247 0.88 11.786 2.5 2.645 12.82 1.04 24.23 0.714 36.07-3.69 1.99-7.381 1.21-11.071-1.07-1.061-12.36-4.262-24.18-1.429-37.5z" fill-rule="evenodd" stroke="#000" stroke-width="1px" fill="#a40"/>
    <path id="path2495" d="m90.854 361.32c-2.808 14.94-0.669 27.89 1.786 40.72 2.023 0.59 4.047 1.19 6.071 1.78 6.469 0.51 12.809 0.12 18.219-6.78 1.85-12.58 3.38-25.33-1.08-41.07-6.23 6.68-15.62 5.99-24.996 5.35z" fill-rule="evenodd" stroke="#000" stroke-width="1px" fill="#a40"/>
    <path id="path2497" d="m59.192 372.81l-0.492 23.46" stroke="#000" stroke-width="1.0136px" fill="none"/>
    <path id="path2501" d="m37.997 371.68l0.357 21.61" stroke="#000" stroke-width="1px" fill="none"/>
    <path id="path2509" d="m172.84 457.15c-6.63-2.27-10.63-2.82-18.1-1.16" stroke="#000" stroke-width="1px" fill="none"/>
    <path id="path2517" d="m25.854 424.54l-10-1.43c-13.502 95.36-21.406 177.16 3.214 48.93l6.786-47.5z" fill-rule="evenodd" stroke="#000" stroke-width="1px" fill="#a40"/>
    <path id="path2519" d="m18.792 422.55l-0.252-6.06 9.091 1.01-1.263 6.56-7.576-1.51z" fill-rule="evenodd" stroke="#000" stroke-width="1px" fill="#fff"/>
    <path id="path2521" d="m19.803 416.24l-0.253-3.04 6.313 0.76 0.505 4.04-6.565-1.76z" fill-rule="evenodd" stroke="#000" stroke-width="1px" fill="#e6e6e6"/>
    <path id="path2523" d="m18.185 414.76l-4.048-0.76 0.736-6.08 17.666 3.42-1.472 5.32-12.882-1.9z" fill-rule="evenodd" stroke="#000" stroke-width="1.4809px" fill="#520"/>
    <path id="path2525" d="m19.55 409.42l2.535-14.99c2.95-9.15 5.219-7.38 7.099 0.6l-2.563 17.67-7.071-3.28z" fill-rule="evenodd" stroke="#000" stroke-width="1px" fill="#520"/>
    <path id="path2576" stroke-linejoin="round" d="m-194.51 416.32c15.65 11.74 29.24 6.33 42.65-0.57" transform="translate(231.09 170.87)" stroke="#000" stroke-linecap="round" fill="none"/>
    <path id="path2578" stroke-linejoin="round" d="m-115.46 414.62c13.6 8.14 27.56 10.76 42.66-3.7" transform="translate(231.09 170.87)" stroke="#000" stroke-linecap="round" fill="none"/>
    <path id="path3615" stroke-linejoin="round" d="m-115.42 184.67c-2.95-4.56-28.1-0.43-24.53 4.82 3.56 5.25 6.13 13.5 11.66 12.87 5.23 1.22 10.46 0.66 15.68-2.41 1.34-4.56 0.14-10.72-2.81-15.28z" fill-rule="evenodd" transform="translate(231.09 170.87)" stroke="#000" stroke-linecap="round" fill="#a40"/>
    <path id="path3646" stroke-linejoin="round" d="m154.59 455.53c-2.93 2.84-5.87 5.68-8.81 8.53-0.76 7.49-1.52 14.98-2.28 22.46 0.95 2.19 3.91 3.82 5.69 1.51 1.06-0.67 1.3-1.72 1.18-2.89l0.24-8.85 3.42-2.28c0.56 4.93 1.13 9.86 1.7 14.79-2.56 5.5-5.12 10.99-7.68 16.49 1.5 1.99 3.29 2.59 4.48 0.57 19.16-32.44 2.99 0.38 4.48 0.57 2.99 0.38 5.97 0.76 8.96 1.14 11.89-4.19 3.25-20.66 8.82-21.9-0.38-9.67-0.76-19.34-1.14-29.01-3.62-3.32-8.94-4.05-13.58-2.88-1.88 0.42-3.7 1.03-5.48 1.75z" fill-rule="evenodd" stroke="#000" stroke-linecap="round" fill="#ff8080"/>
    <path id="path3649" stroke-linejoin="round" d="m8.7115 462.64c-5.877 0.38-11.754 0.75-17.631 1.13-5.7265 14.82-5.7695 13.39 0.5686 27.02 5.524-0.18 11.286 0.59 15.356-5.4 0.7585-4.08 1.5168-8.16 2.2752-12.23-0.6636-0.76-1.3271-1.52-1.9907-2.28 0.474-2.75 0.948-5.49 1.4219-8.24z" fill-rule="evenodd" stroke="#000" stroke-linecap="round" fill="#ff8080"/>
    <path id="path3657" stroke-linejoin="round" d="m97.092 234.75c0.542 5.41 1.084 10.82 1.627 16.23-5.787 10.75-13.597 19.02-25.564 22.2-15.278 1.46-12.732 2.29-22.077-11.38-0.93-13.58-1.859-27.15-2.789-40.72 2.169-5.22 4.338-10.44 6.507-15.66 7.277-14.25 22.133-7.65 35.092-6.27 2.789 9.11 5.577 18.23 8.366 27.34-0.387 2.75-0.775 5.5-1.162 8.26z" fill-rule="evenodd" stroke="#000" stroke-linecap="round" stroke-width=".90458" fill="#ff8080"/>
    <path id="path3660" d="m-143.89 58.581l-14.22 3.981 8.53 3.413 5.69-7.394z" fill="#520" transform="translate(231.09 170.87)" fill-rule="evenodd"/>
    <path id="path3662" d="m-160.39 79.056l-7.96 0.569 4.55 3.981 3.41-4.55z" fill="#520" transform="translate(231.09 170.87)" fill-rule="evenodd"/>
    <path id="path3664" d="m-171.76 62.562l-7.96-1.137 4.55 5.687 3.41-4.55z" fill="#520" transform="translate(231.09 170.87)" fill-rule="evenodd"/>
    <path id="path3666" stroke-linejoin="round" d="m-170.06 90.431l14.22-1.707" fill-rule="evenodd" transform="translate(231.09 170.87)" stroke="#000" stroke-linecap="round" fill="#ff8080"/>
    <path id="path3812" d="m55.82 224.94c1.29 4.95 7.036 6.26 11.085 8.21 2.099 0.38 5.944 3.64 6.427 3.22-2.226-1.79-7.076-6.13-4.043-7.05 0.415 3.57 7.536 4.4 9.09 4.59-0.683-2.05-2.822-8.03-1.16-7.64 2.545 3.44 5.816 6.65 9.825 8.28 0.309-2.25-3.986-10.33 0.896-6.49 4.888 2.21-0.368 7.49 2.29 11.3 0.487 2.6 1.034 3.84 2.891 1.23 2.832-0.79 4.084-6.76 3.391-6.38 2.429 4.32 0.547 8.25-1.635 12.17-1.965 4.42-1.793 9.47-3.033 14.08-4.28 10.83-10.455 20.85-14.324 31.84 0.109 5.74 6.976-0.37 8.932-2.26 3.171-3.08 5.515-6.71 8.15-10.2 2.323-3.6 4.47-7.51 7.288-10.65 2.78-7.29 5.36-15.28 3.14-23.08-1.79-9.82-3.05-19.77-5.243-29.5-2.394-6.3-3.303-13.31-7.151-18.96-4.56-4.84-11.526-5.95-17.449-8.4-5.318 1.34-10.956 3.55-16.019 6.04-7.757 4.45-11.954 12.74-15.194 20.73-0.866 16.19-2.904 32.58 0 48.69 2.228 4.3 4.915 8.47 6.897 12.83 1.065 5.96 0.262 12.17 1.772 18.04-0.403 2.5 1.514 3.85 2.807 0.93 3.857-7.18 4.364-15.55 4.824-23.53-1.85-3.64-6.889-8.61-9.207-12-3.826-4.69 9.15 6.29 5.05 0.4-5.192-7.42-5.486-15.55-5.589-24.49 1.065-2.49-1.958-6.87 0.287-7.88 0.01 4.8 6.784 6.85 10.836 9.53-2.217-4.04-5.588-7.75-6.231-12.45l0.105-0.65 0.295-0.5z" fill-rule="evenodd"/>
    <path id="path4027" stroke-linejoin="round" d="m-143.57 118.31l8.44-52.281-17.69-33.782-12.87 9.652-12.87-4.826-9.65 36.597 12.06 51.88c-13.06 4.66-14.03-5.79-19.3-10.86l-2.01-20.912 7.64-64.748c10.89-8.179 22.42-15.509 37.8-17.695l20.51 5.63c7.75 10.395 9.41 22.313 11.26 34.184l-2.01 47.858-7.64 18.903-13.67 0.4z" fill-rule="evenodd" transform="translate(231.09 170.87)" stroke="#000" stroke-linecap="round" fill="#520"/>
    <path id="path4029" stroke-linejoin="round" d="m40.465 290.79l-4.826-38.21 8.044-51.47 18.901-0.41 18.5-7.64 22.116 29.36-1.61 67.16" stroke="#000" stroke-linecap="round" fill="none"/>
    <path id="path4031" stroke-linejoin="round" d="m-122.66 106.65l-3.22-40.621" transform="translate(231.09 170.87)" stroke="#000" stroke-linecap="round" fill="none"/>
    <path id="path4039" stroke-linejoin="round" d="m-218.4 126.83l7.4 31.28 5.11 7.96 2.85 24.46" transform="translate(231.09 170.87)" stroke="#000" stroke-linecap="round" fill="none"/>
    <path id="path4041" stroke-linejoin="round" d="m-94.412 112.04l-34.128 27.87-21.61 58.01" transform="translate(231.09 170.87)" stroke="#000" stroke-linecap="round" fill="none"/>
    <path id="path4045" d="m-198.27 116.3l5.23-2.61 2.62 7.44 3.01-5.84 12.47 12.07 7.84 1.61 20.71-6.03 7.24-10.66 9.65 5.23 1.81-15.29 5.23-0.8 0.81-1.81 7.44 3.22-5.23 23.52-49.67 17.1-30.56-19.51 1.4-7.64z" fill="#520" transform="translate(231.09 170.87)" fill-rule="evenodd"/>
  </g>
  <metadata>
    <rdf:RDF>
      <cc:Work>
        <dc:format>image/svg+xml</dc:format>
        <dc:type rdf:resource="http://purl.org/dc/dcmitype/StillImage"/>
        <cc:license rdf:resource="http://creativecommons.org/licenses/publicdomain/"/>
        <dc:publisher>
          <cc:Agent rdf:about="http://openclipart.org/">
            <dc:title>Openclipart</dc:title>
          </cc:Agent>
        </dc:publisher>
        <dc:title>Rogue character</dc:title>
        <dc:date>2008-04-28T11:13:04</dc:date>
        <dc:description>based on the very inspiring clone from ricardo.</dc:description>
        <dc:source>http://openclipart.org/detail/16553/rogue-character-by-peileppe</dc:source>
        <dc:creator>
          <cc:Agent>
            <dc:title>Peileppe</dc:title>
          </cc:Agent>
        </dc:creator>
        <dc:subject>
          <rdf:Bag>
            <rdf:li>age</rdf:li>
            <rdf:li>assassin</rdf:li>
            <rdf:li>clip art</rdf:li>
            <rdf:li>clipart</rdf:li>
            <rdf:li>dungeon and dragon</rdf:li>
            <rdf:li>fantasy</rdf:li>
            <rdf:li>gothic</rdf:li>
            <rdf:li>guild</rdf:li>
            <rdf:li>image</rdf:li>
            <rdf:li>media</rdf:li>
            <rdf:li>medieval</rdf:li>
            <rdf:li>middle</rdf:li>
            <rdf:li>png</rdf:li>
            <rdf:li>public domain</rdf:li>
            <rdf:li>remix</rdf:li>
            <rdf:li>rogue</rdf:li>
            <rdf:li>role playing</rdf:li>
            <rdf:li>rpg</rdf:li>
            <rdf:li>svg</rdf:li>
            <rdf:li>thief</rdf:li>
          </rdf:Bag>
        </dc:subject>
      </cc:Work>
      <cc:License rdf:about="http://creativecommons.org/licenses/publicdomain/">
        <cc:permits rdf:resource="http://creativecommons.org/ns#Reproduction"/>
        <cc:permits rdf:resource="http://creativecommons.org/ns#Distribution"/>
        <cc:permits rdf:resource="http://creativecommons.org/ns#DerivativeWorks"/>
      </cc:License>
    </rdf:RDF>
  </metadata>
</svg>
